<svg width="1024" height="1024" viewBox="0 0 1024 1024" fill="none" xmlns="http://www.w3.org/2000/svg">
<g clip-path="url(#clip0_1_2)">
<mask id="mask0_1_2" style="mask-type:luminance" maskUnits="userSpaceOnUse" x="0" y="0" width="1024" height="1024">
<path d="M1024 0H0V1024H1024V0Z" fill="white"/>
</mask>
<g mask="url(#mask0_1_2)">
<mask id="mask1_1_2" style="mask-type:luminance" maskUnits="userSpaceOnUse" x="0" y="0" width="1024" height="1024">
<path d="M1024 0H0V1024H1024V0Z" fill="white"/>
</mask>
<g mask="url(#mask1_1_2)">
<path d="M618.391 532.461L584.109 523.074L572.354 566.002L606.635 575.39L618.391 532.461Z" fill="white"/>
<path d="M602.987 562.165L572.921 543.207L461.281 720.255L491.346 739.213L602.987 562.165Z" fill="white"/>
<path d="M495.082 498.441L549.833 619.966L427.675 673.289L372.924 551.764L495.082 498.441Z" fill="white"/>
<path d="M410.77 124.41C410.77 122.445 409.989 120.56 408.6 119.17C407.21 117.781 405.325 117 403.36 117C401.395 117 399.51 117.781 398.12 119.17C396.731 120.56 395.95 122.445 395.95 124.41C395.95 126.375 396.731 128.26 398.12 129.65C399.51 131.039 401.395 131.82 403.36 131.82C405.325 131.82 407.21 131.039 408.6 129.65C409.989 128.26 410.77 126.375 410.77 124.41Z" stroke="black" stroke-width="2"/>
<path d="M619.25 125.18C619.25 123.228 618.475 121.356 617.094 119.976C615.714 118.595 613.842 117.82 611.89 117.82C609.938 117.82 608.066 118.595 606.686 119.976C605.305 121.356 604.53 123.228 604.53 125.18C604.53 127.132 605.305 129.004 606.686 130.384C608.066 131.765 609.938 132.54 611.89 132.54C613.842 132.54 615.714 131.765 617.094 130.384C618.475 129.004 619.25 127.132 619.25 125.18Z" stroke="black" stroke-width="2"/>
<path d="M427.46 274.76C435.027 289.493 445.43 301.283 458.67 310.13C496.33 335.31 547.27 330.85 579.18 298.54C620.97 256.24 616.39 186.22 568 150.51C545.36 133.8 515.48 127.89 488.71 134.81C427.83 150.55 398.45 218.27 426.98 274.46C427 274.5 427.017 274.523 427.03 274.53C427.117 274.557 427.203 274.583 427.29 274.61C427.37 274.637 427.427 274.687 427.46 274.76Z" stroke="black" stroke-width="2"/>
<path d="M347.07 157.89C347.07 156.162 346.73 154.451 346.068 152.854C345.407 151.257 344.438 149.806 343.215 148.584C341.993 147.362 340.543 146.393 338.946 145.732C337.349 145.07 335.638 144.73 333.91 144.73C332.182 144.73 330.471 145.07 328.874 145.732C327.277 146.393 325.826 147.362 324.604 148.584C323.382 149.806 322.413 151.257 321.752 152.854C321.09 154.451 320.75 156.162 320.75 157.89C320.75 159.618 321.09 161.329 321.752 162.926C322.413 164.523 323.382 165.973 324.604 167.196C325.826 168.418 327.277 169.387 328.874 170.048C330.471 170.71 332.182 171.05 333.91 171.05C335.638 171.05 337.349 170.71 338.946 170.048C340.543 169.387 341.993 168.418 343.215 167.196C344.438 165.973 345.407 164.523 346.068 162.926C346.73 161.329 347.07 159.618 347.07 157.89Z" stroke="black" stroke-width="2"/>
<path d="M692.82 158.53C692.82 156.193 691.892 153.953 690.24 152.3C688.587 150.648 686.347 149.72 684.01 149.72C681.673 149.72 679.433 150.648 677.78 152.3C676.128 153.953 675.2 156.193 675.2 158.53C675.2 160.867 676.128 163.107 677.78 164.76C679.433 166.412 681.673 167.34 684.01 167.34C686.347 167.34 688.587 166.412 690.24 164.76C691.892 163.107 692.82 160.867 692.82 158.53Z" stroke="black" stroke-width="2"/>
<path d="M294.2 227.55C294.2 224.221 292.878 221.029 290.524 218.676C288.171 216.322 284.978 215 281.65 215C278.321 215 275.129 216.322 272.776 218.676C270.422 221.029 269.1 224.221 269.1 227.55C269.1 230.878 270.422 234.071 272.776 236.424C275.129 238.778 278.321 240.1 281.65 240.1C284.978 240.1 288.171 238.778 290.524 236.424C292.878 234.071 294.2 230.878 294.2 227.55Z" stroke="black" stroke-width="2"/>
<path d="M754.1 227.34C754.1 224.094 752.81 220.98 750.515 218.685C748.22 216.39 745.106 215.1 741.86 215.1C738.614 215.1 735.5 216.39 733.205 218.685C730.91 220.98 729.62 224.094 729.62 227.34C729.62 228.947 729.937 230.539 730.552 232.024C731.167 233.509 732.068 234.858 733.205 235.995C734.342 237.132 735.691 238.033 737.176 238.648C738.661 239.263 740.253 239.58 741.86 239.58C743.467 239.58 745.059 239.263 746.544 238.648C748.029 238.033 749.378 237.132 750.515 235.995C751.652 234.858 752.553 233.509 753.168 232.024C753.783 230.539 754.1 228.947 754.1 227.34Z" stroke="black" stroke-width="2"/>
<path d="M366.98 228.83C366.98 226.777 366.165 224.809 364.713 223.357C363.261 221.905 361.293 221.09 359.24 221.09C357.187 221.09 355.218 221.905 353.767 223.357C352.315 224.809 351.5 226.777 351.5 228.83C351.5 230.883 352.315 232.851 353.767 234.303C355.218 235.755 357.187 236.57 359.24 236.57C361.293 236.57 363.261 235.755 364.713 234.303C366.165 232.851 366.98 230.883 366.98 228.83Z" stroke="black" stroke-width="2"/>
<path d="M675.55 228.89C675.55 227.893 675.354 226.906 674.972 225.985C674.591 225.065 674.032 224.228 673.327 223.523C672.622 222.818 671.785 222.259 670.865 221.878C669.944 221.496 668.957 221.3 667.96 221.3C666.963 221.3 665.976 221.496 665.055 221.878C664.135 222.259 663.298 222.818 662.593 223.523C661.888 224.228 661.329 225.065 660.948 225.985C660.566 226.906 660.37 227.893 660.37 228.89C660.37 229.887 660.566 230.874 660.948 231.795C661.329 232.715 661.888 233.552 662.593 234.257C663.298 234.962 664.135 235.521 665.055 235.902C665.976 236.284 666.963 236.48 667.96 236.48C669.973 236.48 671.904 235.68 673.327 234.257C674.75 232.833 675.55 230.903 675.55 228.89Z" stroke="black" stroke-width="2"/>
<path d="M740.82 280.97C740.82 278.885 739.992 276.886 738.518 275.412C737.044 273.938 735.045 273.11 732.96 273.11C730.875 273.11 728.876 273.938 727.402 275.412C725.928 276.886 725.1 278.885 725.1 280.97C725.1 283.055 725.928 285.054 727.402 286.528C728.876 288.002 730.875 288.83 732.96 288.83C735.045 288.83 737.044 288.002 738.518 286.528C739.992 285.054 740.82 283.055 740.82 280.97Z" stroke="black" stroke-width="2"/>
<path d="M289.86 282.2C289.86 280.16 289.05 278.204 287.608 276.762C286.165 275.32 284.209 274.51 282.17 274.51C280.13 274.51 278.174 275.32 276.732 276.762C275.29 278.204 274.48 280.16 274.48 282.2C274.48 284.239 275.29 286.195 276.732 287.638C278.174 289.08 280.13 289.89 282.17 289.89C284.209 289.89 286.165 289.08 287.608 287.638C289.05 286.195 289.86 284.239 289.86 282.2Z" stroke="black" stroke-width="2"/>
<path d="M664.95 294.77C664.95 292.521 664.057 290.364 662.466 288.774C660.876 287.183 658.719 286.29 656.47 286.29C654.221 286.29 652.064 287.183 650.474 288.774C648.883 290.364 647.99 292.521 647.99 294.77C647.99 297.019 648.883 299.176 650.474 300.766C652.064 302.357 654.221 303.25 656.47 303.25C658.719 303.25 660.876 302.357 662.466 300.766C664.057 299.176 664.95 297.019 664.95 294.77Z" stroke="black" stroke-width="2"/>
<path d="M367.94 296.22C367.94 293.955 367.04 291.783 365.439 290.181C363.837 288.58 361.665 287.68 359.4 287.68C357.135 287.68 354.963 288.58 353.361 290.181C351.76 291.783 350.86 293.955 350.86 296.22C350.86 298.485 351.76 300.657 353.361 302.259C354.963 303.86 357.135 304.76 359.4 304.76C361.665 304.76 363.837 303.86 365.439 302.259C367.04 300.657 367.94 298.485 367.94 296.22Z" stroke="black" stroke-width="2"/>
<path d="M229 297.18C229 295.026 228.144 292.961 226.622 291.438C225.099 289.915 223.034 289.06 220.88 289.06C218.726 289.06 216.661 289.915 215.138 291.438C213.615 292.961 212.76 295.026 212.76 297.18C212.76 298.246 212.97 299.302 213.378 300.287C213.786 301.273 214.384 302.168 215.138 302.922C215.892 303.676 216.787 304.274 217.773 304.682C218.758 305.09 219.814 305.3 220.88 305.3C223.034 305.3 225.099 304.444 226.622 302.922C228.144 301.399 229 299.334 229 297.18Z" stroke="black" stroke-width="2"/>
<path d="M812.08 299.05C812.08 296.936 811.24 294.909 809.746 293.414C808.251 291.92 806.224 291.08 804.11 291.08C801.996 291.08 799.969 291.92 798.474 293.414C796.98 294.909 796.14 296.936 796.14 299.05C796.14 300.097 796.346 301.133 796.747 302.1C797.147 303.067 797.734 303.946 798.474 304.686C799.214 305.426 800.093 306.013 801.06 306.413C802.027 306.814 803.063 307.02 804.11 307.02C805.157 307.02 806.193 306.814 807.16 306.413C808.127 306.013 809.005 305.426 809.746 304.686C810.486 303.946 811.073 303.067 811.473 302.1C811.874 301.133 812.08 300.097 812.08 299.05Z" stroke="black" stroke-width="2"/>
<path d="M803.39 332.14C803.39 328.971 802.131 325.931 799.89 323.69C797.649 321.449 794.609 320.19 791.44 320.19C788.271 320.19 785.231 321.449 782.99 323.69C780.749 325.931 779.49 328.971 779.49 332.14C779.49 335.309 780.749 338.349 782.99 340.59C785.231 342.831 788.271 344.09 791.44 344.09C794.609 344.09 797.649 342.831 799.89 340.59C802.131 338.349 803.39 335.309 803.39 332.14Z" stroke="black" stroke-width="2"/>
<path d="M242.108 326.761C240.774 323.977 238.332 321.864 235.319 320.888C232.306 319.911 228.968 320.15 226.04 321.553C223.113 322.955 220.835 325.407 219.708 328.367C218.581 331.327 218.698 334.555 220.032 337.339C221.365 340.123 223.808 342.236 226.821 343.212C229.834 344.189 233.172 343.95 236.099 342.547C239.027 341.145 241.305 338.693 242.432 335.733C243.559 332.773 243.442 329.545 242.108 326.761Z" stroke="black" stroke-width="2"/>
<path d="M720.035 373.92C722.411 374.296 724.85 373.643 726.816 372.103C728.782 370.563 730.114 368.263 730.518 365.709C730.719 364.444 730.685 363.155 730.42 361.916C730.155 360.676 729.663 359.51 728.973 358.484C728.283 357.458 727.408 356.592 726.397 355.936C725.387 355.28 724.262 354.846 723.085 354.66C720.709 354.284 718.27 354.937 716.304 356.477C714.338 358.017 713.006 360.317 712.602 362.871C712.401 364.136 712.435 365.425 712.7 366.664C712.965 367.904 713.457 369.07 714.147 370.096C714.837 371.122 715.712 371.988 716.723 372.644C717.733 373.3 718.858 373.734 720.035 373.92Z" stroke="black" stroke-width="2"/>
<path d="M328.87 370.9C328.87 368.418 327.884 366.037 326.128 364.281C324.373 362.526 321.992 361.54 319.51 361.54C317.028 361.54 314.647 362.526 312.891 364.281C311.136 366.037 310.15 368.418 310.15 370.9C310.15 373.382 311.136 375.763 312.891 377.519C314.647 379.274 317.028 380.26 319.51 380.26C321.992 380.26 324.373 379.274 326.128 377.519C327.884 375.763 328.87 373.382 328.87 370.9Z" stroke="black" stroke-width="2"/>
<path d="M423.78 542.28C421.647 538.053 419.823 535.373 418.31 534.24C416.08 532.56 412.62 533.03 409.97 533.02C379.817 532.907 349.717 532.833 319.67 532.8C319.203 532.8 318.887 532.583 318.72 532.15C315.687 524.35 311.547 517.22 306.3 510.76C295.893 497.953 285.257 485.34 274.39 472.92C268.76 466.5 262.21 455 261.87 445.73C261.61 438.68 261.38 429.48 260.79 424.29C259.83 415.88 254.26 408.15 250.2 401.09C247.66 396.67 252.33 387.33 254 382.79C254.48 381.49 254.04 380.71 252.68 380.45C252.42 380.403 251.847 380.5 250.96 380.74C241.23 383.39 232.56 391.52 232.98 402.3C233.15 406.77 235.56 412.16 237.03 416.89C237.37 417.963 236.987 418.61 235.88 418.83C221.59 421.71 205.72 412.73 199.66 399.4C197.127 393.827 194.517 388.297 191.83 382.81C190.023 379.103 188.353 376.643 186.82 375.43C181.99 371.6 171.3 371.81 173.26 381.09C175.687 392.577 178.917 404.71 182.95 417.49C185.68 426.14 188.92 431.69 195.65 436.93C204.14 443.54 212.51 450.36 221.27 456.62C227.61 461.16 231.43 466.25 233.56 474.11C241.9 504.9 248.87 535.93 255.12 567.22C256.04 571.81 260.17 575 264.09 577.02C269.76 579.94 276.14 582.67 281.22 586.51C283.68 588.363 284.94 589.313 285 589.36C310.713 607.573 336.417 625.81 362.11 644.07C366.337 647.077 369.877 649.41 372.73 651.07C382.96 657.04 392.89 660.25 399.74 670.6C401.787 673.7 403.69 678.367 405.45 684.6C408.37 694.96 411.133 706.207 413.74 718.34C416.3 730.25 416.63 743.12 411.41 753.98C407.51 762.12 399.94 772.64 390.67 775.18C390.494 775.227 390.31 775.237 390.131 775.207C389.951 775.178 389.781 775.111 389.63 775.01C376.29 766.31 362.75 757.69 346.8 754.72C328.15 751.23 305.58 757.64 291.97 771.35C289.297 774.037 287.49 776.217 286.55 777.89C265.71 814.88 287.4 850.38 322.3 865.78C328.48 868.51 326.94 877.86 326.58 885.24C326.567 885.553 326.403 885.73 326.09 885.77C324.463 885.983 322.84 886.09 321.22 886.09C289.573 886.077 257.927 886.083 226.28 886.11C207.33 886.12 210.34 907.08 227.53 907.08C414.403 907.093 601.273 907.093 788.14 907.08C792.47 907.08 800.18 906.51 802.98 904.83C812.71 898.97 808.44 886.14 797.46 886.12C764.027 886.08 730.567 886.073 697.08 886.1C696.809 886.1 696.549 885.995 696.355 885.806C696.161 885.617 696.048 885.361 696.04 885.09L695.52 870.52C695.514 870.339 695.548 870.158 695.621 869.992C695.693 869.826 695.802 869.678 695.94 869.56C697.99 867.74 699.64 865.92 702.08 864.6C719.27 855.34 734.39 845.22 741.82 826.41C751.85 801.03 742.13 774.13 718.23 761.25C695.19 748.83 667.69 753.57 646.24 767.62C642.4 770.14 638.503 772.707 634.55 775.32C633.963 775.707 633.367 775.723 632.76 775.37L624.61 770.64C624.299 770.459 624.031 770.214 623.825 769.92C623.618 769.626 623.477 769.29 623.411 768.936C623.346 768.582 623.357 768.218 623.445 767.869C623.533 767.519 623.695 767.192 623.92 766.91C634.647 753.53 645.397 739.827 656.17 725.8C665.18 714.07 643.54 701.92 634.87 699.05C632.31 698.2 630.18 699.11 628.59 700.98C622.943 707.627 617.723 714.757 612.93 722.37C612.791 722.597 612.579 722.769 612.329 722.859C612.079 722.949 611.805 722.951 611.554 722.865C611.302 722.778 611.088 722.609 610.945 722.385C610.803 722.16 610.741 721.894 610.77 721.63C611.903 710.277 613.997 698.953 617.05 687.66C620.03 676.6 623.94 669.33 632.51 662.63C637.337 658.85 640.747 656.497 642.74 655.57C660.64 647.26 678.87 637.87 694.45 625.66C708.877 614.34 723.287 602.997 737.68 591.63C746.91 584.34 756.22 578.28 765.89 572C767.097 571.22 767.757 570.56 767.87 570.02C773.617 542.607 779.65 515.26 785.97 487.98C787.55 481.15 789.68 474.38 792.29 468.65C795.34 461.93 799.53 459.34 807 453.75C813.35 449 819.58 444.19 825.73 439.2C832.16 433.98 835.4 430.94 838.2 422.72C843.013 408.593 846.92 394.213 849.92 379.58C851.43 372.2 841.21 372.08 837.43 374.72C831.46 378.88 825.18 394.97 822.81 401.6C822.537 402.36 822.137 402.893 821.61 403.2C821.33 403.36 821.087 403.563 820.88 403.81C813.06 413.14 801.7 420.24 789.64 419.63C786.8 419.49 784.99 418.01 786.19 415.03C788.04 410.42 789.92 406.27 790.28 401.6C791.12 390.55 781.57 382.51 771.66 380.67C771.356 380.612 771.041 380.661 770.77 380.81C769.41 381.557 768.997 382.733 769.53 384.34C771.157 389.24 772.717 394.203 774.21 399.23C774.257 399.388 774.273 399.553 774.256 399.717C774.239 399.88 774.189 400.037 774.11 400.18C771.3 405.3 767.31 410.54 765.34 415.23C762.833 421.203 761.513 427.493 761.38 434.1C761.24 440.38 762.02 447.93 759.9 453.86C757.04 461.86 753.36 468.05 747.43 474.99C731.18 494.01 716.87 510.63 706.24 532.33C706.178 532.459 706.072 532.567 705.936 532.643C705.8 532.719 705.638 532.76 705.47 532.76L616.77 533.13C616.518 533.13 616.269 533.191 616.046 533.31C615.823 533.429 615.632 533.6 615.49 533.81C601.803 554.043 588.663 574.43 576.07 594.97C553.73 631.4 531.51 667.9 509.22 704.37C507.28 707.54 501.59 718.07 497.73 718.08C490.583 718.1 483.483 718.1 476.43 718.08C476.28 718.079 476.133 718.042 476.001 717.971C475.869 717.901 475.756 717.799 475.672 717.675C475.588 717.55 475.536 717.408 475.52 717.259C475.504 717.11 475.525 716.959 475.58 716.82C476.893 713.54 478.543 710.317 480.53 707.15C510.57 659.363 540.477 611.493 570.25 563.54C577.857 551.28 585.427 538.997 592.96 526.69C593.133 526.41 593.153 526.117 593.02 525.81C589.8 518.61 586.83 512.4 586.17 504.43C586.143 504.15 586.17 498.92 586.25 488.74C586.397 468.953 586.303 455.32 585.97 447.84C583.96 402.24 548.34 362.6 499.8 371.94C467.88 378.09 444.39 404.52 439.45 436.4C437.53 448.81 438.53 464.77 438.95 478.59C439.417 493.57 438.75 508.51 436.95 523.41C436.91 523.743 436.973 524.057 437.14 524.35C439.207 527.95 441.093 530.923 442.8 533.27C462.993 561.003 483.153 588.76 503.28 616.54C507.95 622.99 506.44 629.8 499.94 634.13C495.28 637.23 490.33 635.2 487.29 631.02C466.363 602.347 445.773 573.433 425.52 544.28C425.147 543.74 424.77 543.32 424.39 543.02C424.137 542.82 423.933 542.573 423.78 542.28Z" stroke="black" stroke-width="2"/>
<path d="M853.5 514.86C853.5 512.306 852.485 509.857 850.679 508.051C848.873 506.245 846.424 505.23 843.87 505.23C841.316 505.23 838.867 506.245 837.061 508.051C835.255 509.857 834.24 512.306 834.24 514.86C834.24 517.414 835.255 519.863 837.061 521.669C838.867 523.475 841.316 524.49 843.87 524.49C846.424 524.49 848.873 523.475 850.679 521.669C852.485 519.863 853.5 517.414 853.5 514.86Z" stroke="black" stroke-width="2"/>
<path d="M190.42 521.09C190.42 518.382 189.344 515.785 187.43 513.87C185.515 511.956 182.918 510.88 180.21 510.88C177.502 510.88 174.905 511.956 172.99 513.87C171.076 515.785 170 518.382 170 521.09C170 523.798 171.076 526.395 172.99 528.31C174.905 530.224 177.502 531.3 180.21 531.3C182.918 531.3 185.515 530.224 187.43 528.31C189.344 526.395 190.42 523.798 190.42 521.09Z" stroke="black" stroke-width="2"/>
<path d="M223.58 615.44C223.58 613.268 222.717 611.185 221.181 609.649C219.645 608.113 217.562 607.25 215.39 607.25C213.218 607.25 211.135 608.113 209.599 609.649C208.063 611.185 207.2 613.268 207.2 615.44C207.2 617.612 208.063 619.695 209.599 621.231C211.135 622.767 213.218 623.63 215.39 623.63C217.562 623.63 219.645 622.767 221.181 621.231C222.717 619.695 223.58 617.612 223.58 615.44Z" stroke="black" stroke-width="2"/>
<path d="M817.62 615.36C817.62 613.241 816.778 611.209 815.28 609.71C813.781 608.212 811.749 607.37 809.63 607.37C807.511 607.37 805.479 608.212 803.98 609.71C802.482 611.209 801.64 613.241 801.64 615.36C801.64 617.479 802.482 619.511 803.98 621.01C805.479 622.508 807.511 623.35 809.63 623.35C811.749 623.35 813.781 622.508 815.28 621.01C816.778 619.511 817.62 617.479 817.62 615.36Z" stroke="black" stroke-width="2"/>
<path d="M248.38 708.88C248.38 704.947 246.818 701.175 244.036 698.394C241.255 695.612 237.483 694.05 233.55 694.05C231.602 694.05 229.674 694.434 227.875 695.179C226.076 695.924 224.441 697.016 223.064 698.394C221.686 699.771 220.594 701.406 219.849 703.205C219.104 705.004 218.72 706.932 218.72 708.88C218.72 710.827 219.104 712.756 219.849 714.555C220.594 716.354 221.686 717.989 223.064 719.366C224.441 720.743 226.076 721.836 227.875 722.581C229.674 723.326 231.602 723.71 233.55 723.71C237.483 723.71 241.255 722.148 244.036 719.366C246.818 716.585 248.38 712.813 248.38 708.88Z" stroke="black" stroke-width="2"/>
<path d="M804.02 708.84C804.02 706.911 803.64 705.001 802.902 703.218C802.163 701.436 801.081 699.817 799.717 698.453C798.353 697.089 796.734 696.006 794.952 695.268C793.169 694.53 791.259 694.15 789.33 694.15C787.401 694.15 785.491 694.53 783.708 695.268C781.926 696.006 780.307 697.089 778.943 698.453C777.578 699.817 776.496 701.436 775.758 703.218C775.02 705.001 774.64 706.911 774.64 708.84C774.64 712.736 776.188 716.472 778.943 719.227C781.697 721.982 785.434 723.53 789.33 723.53C793.226 723.53 796.962 721.982 799.717 719.227C802.472 716.472 804.02 712.736 804.02 708.84Z" stroke="black" stroke-width="2"/>
<path d="M331.18 715.43C331.18 713.292 330.331 711.242 328.819 709.731C327.308 708.219 325.258 707.37 323.12 707.37C320.982 707.37 318.932 708.219 317.421 709.731C315.909 711.242 315.06 713.292 315.06 715.43C315.06 717.568 315.909 719.618 317.421 721.129C318.932 722.641 320.982 723.49 323.12 723.49C325.258 723.49 327.308 722.641 328.819 721.129C330.331 719.618 331.18 717.568 331.18 715.43Z" stroke="black" stroke-width="2"/>
<path d="M714.04 716.14C714.04 714 713.19 711.947 711.676 710.434C710.163 708.92 708.11 708.07 705.97 708.07C703.83 708.07 701.777 708.92 700.264 710.434C698.75 711.947 697.9 714 697.9 716.14C697.9 718.28 698.75 720.333 700.264 721.846C701.777 723.36 703.83 724.21 705.97 724.21C708.11 724.21 710.163 723.36 711.676 721.846C713.19 720.333 714.04 718.28 714.04 716.14Z" stroke="black" stroke-width="2"/>
<path d="M511.23 161.33C510.983 161.529 510.784 161.781 510.645 162.066C510.507 162.351 510.433 162.663 510.429 162.979C510.426 163.296 510.492 163.608 510.623 163.896C510.755 164.183 510.948 164.437 511.19 164.64L524.55 175.88C524.964 176.232 525.497 176.413 526.04 176.385C526.583 176.357 527.094 176.123 527.47 175.73L535.72 167.14C536.068 166.776 536.334 166.341 536.5 165.866C536.666 165.391 536.729 164.885 536.685 164.384C536.64 163.882 536.489 163.396 536.242 162.957C535.994 162.518 535.656 162.137 535.25 161.84L522.83 152.81C522.477 152.55 522.13 152.557 521.79 152.83L511.23 161.33Z" stroke="#818C92" stroke-width="2"/>
<path d="M519.58 203.27L502.54 224.62C502.355 224.852 502.122 225.04 501.858 225.171C501.594 225.303 501.304 225.374 501.01 225.38L466.46 226.13C466.067 226.143 465.81 226.34 465.69 226.72C461.46 240.33 473.27 240.97 482.61 241.74C482.687 241.745 482.762 241.773 482.824 241.819C482.887 241.865 482.935 241.927 482.963 242C482.992 242.072 482.999 242.151 482.984 242.227C482.969 242.303 482.933 242.373 482.88 242.43C471.927 254.117 460.457 265.257 448.47 275.85C446.983 277.163 446.14 278.717 445.94 280.51C445.925 280.647 445.938 280.785 445.98 280.916C446.021 281.048 446.09 281.169 446.182 281.271C446.273 281.374 446.385 281.457 446.511 281.513C446.636 281.57 446.772 281.599 446.91 281.6C468.25 281.69 492.34 258.17 503.65 241.71C505.32 239.28 506.41 239.15 509.22 239.29C527.26 240.17 549.77 240.7 569.13 236.62C569.639 236.512 570.09 236.222 570.4 235.806C570.709 235.39 570.855 234.876 570.81 234.36C570.42 229.57 566.98 219.92 560.4 221.24C548.48 223.627 536.47 224.647 524.37 224.3C524.304 224.3 524.239 224.281 524.184 224.244C524.129 224.208 524.086 224.157 524.059 224.097C524.033 224.036 524.024 223.969 524.035 223.904C524.046 223.839 524.075 223.779 524.12 223.73C529.16 218.07 533.94 212.103 538.46 205.83C539.667 204.15 543.16 201.563 548.94 198.07C550.34 197.22 550.52 194.94 549.62 193.48C543.73 183.96 537.28 185.09 527.4 185.55C507.247 186.477 487.107 186.18 466.98 184.66C465.587 184.553 464.567 185.253 463.92 186.76C458.63 199.18 465.42 202.37 476.47 202.36C490.743 202.347 504.963 202.343 519.13 202.35C519.237 202.35 519.341 202.38 519.432 202.436C519.522 202.493 519.595 202.574 519.642 202.67C519.689 202.765 519.708 202.873 519.697 202.979C519.686 203.085 519.645 203.186 519.58 203.27Z" stroke="#818C92" stroke-width="2"/>
<path d="M524.74 245.53C531.22 259.79 546.31 287.88 564.16 291.05C564.328 291.081 564.501 291.074 564.666 291.029C564.83 290.984 564.982 290.902 565.11 290.79C569.77 286.737 571.67 281.583 570.81 275.33C570.763 274.99 570.603 274.717 570.33 274.51C560.87 267.323 552.317 259.2 544.67 250.14C538.91 243.32 533.39 243.42 525.22 244.64C525.123 244.656 525.03 244.694 524.95 244.751C524.87 244.809 524.804 244.883 524.757 244.969C524.711 245.056 524.685 245.151 524.682 245.248C524.679 245.345 524.699 245.442 524.74 245.53Z" stroke="#818C92" stroke-width="2"/>
<path d="M477.8 292.23C478.41 294.63 480.74 295.65 483.05 294.94C494.877 291.347 505.227 285.327 514.1 276.88C519.66 271.58 513.66 261.16 509.54 256.53C509.372 256.339 509.141 256.216 508.889 256.183C508.637 256.15 508.381 256.209 508.17 256.35C505.623 258.057 503.233 260.15 501 262.63C494.167 270.223 487.477 277.943 480.93 285.79C479.51 287.5 477.24 290 477.8 292.23Z" stroke="#818C92" stroke-width="2"/>
<path d="M468.41 473.9C477.4 481.33 488.05 477.09 498.08 475.21C511.96 472.62 522.83 474.14 536.83 477.12C548.84 479.67 559.79 478.17 562.96 464.59C564.85 456.47 566.34 439.51 553.76 439.62C526.087 439.86 498.417 439.93 470.75 439.83C467.28 439.82 463.28 440.74 462.3 444.12C459.91 452.43 460.56 467.42 468.41 473.9Z" stroke="#818C92" stroke-width="2"/>
<path d="M438.25 743.6C431.46 743.6 430.96 758.57 440.98 759.5C448.38 760.193 455.793 760.63 463.22 760.81C501.76 761.75 541.2 762.84 579.47 759.62C586.54 759.02 592.06 755.06 589.39 747.09C588.21 743.59 585.82 743.08 582.45 743.16C534.45 744.31 486.27 743.59 438.25 743.6Z" stroke="#818C92" stroke-width="2"/>
<path d="M505.59 454.86L475.19 453.8C475.145 453.8 475.102 453.818 475.07 453.85C475.038 453.882 475.02 453.925 475.02 453.97V454C474.932 456.591 476.451 459.132 479.243 461.063C482.035 462.995 485.872 464.159 489.91 464.3L490.19 464.31C494.228 464.451 498.137 463.556 501.057 461.824C503.977 460.091 505.669 457.662 505.76 455.07V455.04C505.761 455.017 505.758 454.994 505.75 454.972C505.742 454.95 505.73 454.93 505.714 454.913C505.698 454.896 505.679 454.883 505.657 454.874C505.636 454.865 505.613 454.86 505.59 454.86Z" stroke="#818C92" stroke-width="2"/>
<path d="M403.36 131.82C407.452 131.82 410.77 128.502 410.77 124.41C410.77 120.318 407.452 117 403.36 117C399.268 117 395.95 120.318 395.95 124.41C395.95 128.502 399.268 131.82 403.36 131.82Z" fill="black"/>
<path d="M611.89 132.54C615.955 132.54 619.25 129.245 619.25 125.18C619.25 121.115 615.955 117.82 611.89 117.82C607.825 117.82 604.53 121.115 604.53 125.18C604.53 129.245 607.825 132.54 611.89 132.54Z" fill="black"/>
<path d="M427.29 274.61C427.203 274.583 427.117 274.557 427.03 274.53C427.017 274.523 427 274.5 426.98 274.46C398.45 218.27 427.83 150.55 488.71 134.81C515.48 127.89 545.36 133.8 568 150.51C616.39 186.22 620.97 256.24 579.18 298.54C547.27 330.85 496.33 335.31 458.67 310.13C445.43 301.283 435.027 289.493 427.46 274.76C427.427 274.687 427.37 274.637 427.29 274.61ZM511.23 161.33C510.983 161.529 510.784 161.781 510.645 162.066C510.507 162.351 510.433 162.663 510.429 162.979C510.426 163.296 510.492 163.609 510.623 163.896C510.755 164.183 510.948 164.437 511.19 164.64L524.55 175.88C524.964 176.232 525.497 176.413 526.04 176.385C526.583 176.357 527.094 176.123 527.47 175.73L535.72 167.14C536.068 166.776 536.334 166.341 536.5 165.866C536.666 165.391 536.729 164.885 536.685 164.384C536.64 163.882 536.489 163.396 536.242 162.957C535.995 162.518 535.656 162.138 535.25 161.84L522.83 152.81C522.477 152.55 522.13 152.557 521.79 152.83L511.23 161.33ZM519.58 203.27L502.54 224.62C502.355 224.852 502.123 225.04 501.858 225.171C501.594 225.303 501.304 225.374 501.01 225.38L466.46 226.13C466.067 226.143 465.81 226.34 465.69 226.72C461.46 240.33 473.27 240.97 482.61 241.74C482.687 241.745 482.762 241.773 482.824 241.819C482.887 241.865 482.935 241.927 482.963 242C482.992 242.072 482.999 242.151 482.984 242.227C482.969 242.303 482.933 242.373 482.88 242.43C471.927 254.117 460.457 265.257 448.47 275.85C446.983 277.163 446.14 278.717 445.94 280.51C445.925 280.647 445.938 280.785 445.98 280.917C446.021 281.048 446.09 281.169 446.182 281.271C446.273 281.374 446.385 281.457 446.511 281.513C446.636 281.57 446.772 281.599 446.91 281.6C468.25 281.69 492.34 258.17 503.65 241.71C505.32 239.28 506.41 239.15 509.22 239.29C527.26 240.17 549.77 240.7 569.13 236.62C569.639 236.512 570.09 236.223 570.4 235.806C570.709 235.39 570.855 234.876 570.81 234.36C570.42 229.57 566.98 219.92 560.4 221.24C548.48 223.627 536.47 224.647 524.37 224.3C524.304 224.3 524.24 224.281 524.184 224.245C524.129 224.208 524.086 224.157 524.059 224.097C524.033 224.036 524.024 223.969 524.035 223.904C524.046 223.839 524.075 223.779 524.12 223.73C529.16 218.07 533.94 212.103 538.46 205.83C539.667 204.15 543.16 201.563 548.94 198.07C550.34 197.22 550.52 194.94 549.62 193.48C543.73 183.96 537.28 185.09 527.4 185.55C507.247 186.477 487.107 186.18 466.98 184.66C465.587 184.553 464.567 185.253 463.92 186.76C458.63 199.18 465.42 202.37 476.47 202.36C490.743 202.347 504.963 202.343 519.13 202.35C519.237 202.35 519.341 202.38 519.432 202.436C519.522 202.493 519.595 202.574 519.642 202.67C519.689 202.765 519.708 202.873 519.697 202.979C519.686 203.085 519.646 203.186 519.58 203.27ZM524.74 245.53C531.22 259.79 546.31 287.88 564.16 291.05C564.328 291.081 564.501 291.074 564.666 291.029C564.831 290.984 564.982 290.902 565.11 290.79C569.77 286.737 571.67 281.583 570.81 275.33C570.763 274.99 570.603 274.717 570.33 274.51C560.87 267.323 552.317 259.2 544.67 250.14C538.91 243.32 533.39 243.42 525.22 244.64C525.123 244.656 525.03 244.694 524.95 244.752C524.87 244.809 524.804 244.883 524.757 244.969C524.711 245.056 524.685 245.151 524.682 245.248C524.679 245.346 524.699 245.442 524.74 245.53ZM477.8 292.23C478.41 294.63 480.74 295.65 483.05 294.94C494.877 291.347 505.227 285.327 514.1 276.88C519.66 271.58 513.66 261.16 509.54 256.53C509.372 256.339 509.141 256.216 508.889 256.183C508.637 256.15 508.382 256.209 508.17 256.35C505.623 258.057 503.233 260.15 501 262.63C494.167 270.223 487.477 277.943 480.93 285.79C479.51 287.5 477.24 290 477.8 292.23Z" fill="black"/>
<path d="M333.91 171.05C341.178 171.05 347.07 165.158 347.07 157.89C347.07 150.622 341.178 144.73 333.91 144.73C326.642 144.73 320.75 150.622 320.75 157.89C320.75 165.158 326.642 171.05 333.91 171.05Z" fill="black"/>
<path d="M684.01 167.34C688.876 167.34 692.82 163.396 692.82 158.53C692.82 153.664 688.876 149.72 684.01 149.72C679.144 149.72 675.2 153.664 675.2 158.53C675.2 163.396 679.144 167.34 684.01 167.34Z" fill="black"/>
<path d="M511.23 161.33L521.79 152.83C522.13 152.557 522.477 152.55 522.83 152.81L535.25 161.84C535.656 162.138 535.994 162.518 536.242 162.957C536.489 163.396 536.64 163.882 536.685 164.384C536.729 164.885 536.666 165.391 536.5 165.866C536.334 166.341 536.068 166.776 535.72 167.14L527.47 175.73C527.094 176.123 526.583 176.357 526.04 176.385C525.497 176.413 524.964 176.232 524.55 175.88L511.19 164.64C510.948 164.437 510.755 164.183 510.623 163.896C510.492 163.609 510.426 163.296 510.429 162.979C510.433 162.663 510.507 162.351 510.645 162.066C510.784 161.781 510.983 161.529 511.23 161.33Z" fill="white"/>
<path d="M519.58 203.27C519.646 203.186 519.686 203.085 519.697 202.979C519.708 202.873 519.689 202.765 519.642 202.67C519.595 202.574 519.522 202.493 519.432 202.436C519.341 202.38 519.237 202.35 519.13 202.35C504.963 202.343 490.743 202.347 476.47 202.36C465.42 202.37 458.63 199.18 463.92 186.76C464.567 185.253 465.587 184.553 466.98 184.66C487.107 186.18 507.247 186.477 527.4 185.55C537.28 185.09 543.73 183.96 549.62 193.48C550.52 194.94 550.34 197.22 548.94 198.07C543.16 201.563 539.667 204.15 538.46 205.83C533.94 212.103 529.16 218.07 524.12 223.73C524.075 223.779 524.046 223.839 524.035 223.904C524.024 223.969 524.033 224.036 524.059 224.097C524.086 224.157 524.129 224.208 524.184 224.245C524.24 224.281 524.304 224.3 524.37 224.3C536.47 224.647 548.48 223.627 560.4 221.24C566.98 219.92 570.42 229.57 570.81 234.36C570.855 234.876 570.709 235.39 570.4 235.806C570.09 236.223 569.639 236.512 569.13 236.62C549.77 240.7 527.26 240.17 509.22 239.29C506.41 239.15 505.32 239.28 503.65 241.71C492.34 258.17 468.25 281.69 446.91 281.6C446.772 281.599 446.636 281.57 446.511 281.513C446.385 281.457 446.273 281.374 446.182 281.272C446.09 281.169 446.021 281.048 445.98 280.917C445.938 280.785 445.925 280.647 445.94 280.51C446.14 278.717 446.983 277.163 448.47 275.85C460.457 265.257 471.927 254.117 482.88 242.43C482.933 242.374 482.969 242.303 482.984 242.227C482.999 242.151 482.992 242.072 482.963 242C482.935 241.927 482.887 241.865 482.824 241.819C482.762 241.773 482.687 241.745 482.61 241.74C473.27 240.97 461.46 240.33 465.69 226.72C465.81 226.34 466.067 226.143 466.46 226.13L501.01 225.38C501.304 225.374 501.594 225.303 501.858 225.172C502.122 225.04 502.355 224.852 502.54 224.62L519.58 203.27Z" fill="white"/>
<path d="M281.65 240.1C288.581 240.1 294.2 234.481 294.2 227.55C294.2 220.619 288.581 215 281.65 215C274.719 215 269.1 220.619 269.1 227.55C269.1 234.481 274.719 240.1 281.65 240.1Z" fill="black"/>
<path d="M741.86 239.58C748.62 239.58 754.1 234.1 754.1 227.34C754.1 220.58 748.62 215.1 741.86 215.1C735.1 215.1 729.62 220.58 729.62 227.34C729.62 234.1 735.1 239.58 741.86 239.58Z" fill="black"/>
<path d="M359.24 236.57C363.515 236.57 366.98 233.105 366.98 228.83C366.98 224.555 363.515 221.09 359.24 221.09C354.965 221.09 351.5 224.555 351.5 228.83C351.5 233.105 354.965 236.57 359.24 236.57Z" fill="black"/>
<path d="M667.96 236.48C672.152 236.48 675.55 233.082 675.55 228.89C675.55 224.698 672.152 221.3 667.96 221.3C663.768 221.3 660.37 224.698 660.37 228.89C660.37 233.082 663.768 236.48 667.96 236.48Z" fill="black"/>
<path d="M564.16 291.05C546.31 287.88 531.22 259.79 524.74 245.53C524.699 245.442 524.679 245.345 524.682 245.248C524.685 245.151 524.711 245.056 524.757 244.969C524.804 244.883 524.87 244.809 524.95 244.751C525.03 244.694 525.123 244.656 525.22 244.64C533.39 243.42 538.91 243.32 544.67 250.14C552.317 259.2 560.87 267.323 570.33 274.51C570.603 274.717 570.763 274.99 570.81 275.33C571.67 281.583 569.77 286.737 565.11 290.79C564.982 290.902 564.831 290.984 564.666 291.029C564.501 291.074 564.328 291.081 564.16 291.05Z" fill="white"/>
<path d="M483.05 294.94C480.74 295.65 478.41 294.63 477.8 292.23C477.24 290 479.51 287.5 480.93 285.79C487.477 277.943 494.167 270.223 501 262.63C503.233 260.15 505.623 258.057 508.17 256.35C508.381 256.209 508.637 256.15 508.889 256.183C509.141 256.216 509.372 256.339 509.54 256.53C513.66 261.16 519.66 271.58 514.1 276.88C505.227 285.327 494.877 291.347 483.05 294.94Z" fill="white"/>
<path d="M732.96 288.83C737.301 288.83 740.82 285.311 740.82 280.97C740.82 276.629 737.301 273.11 732.96 273.11C728.619 273.11 725.1 276.629 725.1 280.97C725.1 285.311 728.619 288.83 732.96 288.83Z" fill="black"/>
<path d="M282.17 289.89C286.417 289.89 289.86 286.447 289.86 282.2C289.86 277.953 286.417 274.51 282.17 274.51C277.923 274.51 274.48 277.953 274.48 282.2C274.48 286.447 277.923 289.89 282.17 289.89Z" fill="black"/>
<path d="M656.47 303.25C661.153 303.25 664.95 299.453 664.95 294.77C664.95 290.087 661.153 286.29 656.47 286.29C651.787 286.29 647.99 290.087 647.99 294.77C647.99 299.453 651.787 303.25 656.47 303.25Z" fill="black"/>
<path d="M359.4 304.76C364.117 304.76 367.94 300.937 367.94 296.22C367.94 291.503 364.117 287.68 359.4 287.68C354.683 287.68 350.86 291.503 350.86 296.22C350.86 300.937 354.683 304.76 359.4 304.76Z" fill="black"/>
<path d="M220.88 305.3C225.365 305.3 229 301.665 229 297.18C229 292.695 225.365 289.06 220.88 289.06C216.395 289.06 212.76 292.695 212.76 297.18C212.76 301.665 216.395 305.3 220.88 305.3Z" fill="black"/>
<path d="M804.11 307.02C808.512 307.02 812.08 303.452 812.08 299.05C812.08 294.648 808.512 291.08 804.11 291.08C799.708 291.08 796.14 294.648 796.14 299.05C796.14 303.452 799.708 307.02 804.11 307.02Z" fill="black"/>
<path d="M791.44 344.09C798.04 344.09 803.39 338.74 803.39 332.14C803.39 325.54 798.04 320.19 791.44 320.19C784.84 320.19 779.49 325.54 779.49 332.14C779.49 338.74 784.84 344.09 791.44 344.09Z" fill="black"/>
<path d="M236.099 342.547C242.196 339.626 244.886 332.559 242.108 326.761C239.331 320.964 232.137 318.632 226.041 321.553C219.944 324.474 217.254 331.541 220.032 337.339C222.809 343.136 230.003 345.468 236.099 342.547Z" fill="black"/>
<path d="M712.602 362.871C711.759 368.19 715.087 373.136 720.035 373.92C724.982 374.704 729.676 371.027 730.518 365.709C731.361 360.39 728.033 355.444 723.085 354.66C718.138 353.876 713.444 357.553 712.602 362.871Z" fill="black"/>
<path d="M319.51 380.26C324.679 380.26 328.87 376.069 328.87 370.9C328.87 365.731 324.679 361.54 319.51 361.54C314.341 361.54 310.15 365.731 310.15 370.9C310.15 376.069 314.341 380.26 319.51 380.26Z" fill="black"/>
<path d="M424.39 543.02C424.77 543.32 425.147 543.74 425.52 544.28C445.773 573.433 466.363 602.347 487.29 631.02C490.33 635.2 495.28 637.23 499.94 634.13C506.44 629.8 507.95 622.99 503.28 616.54C483.153 588.76 462.993 561.003 442.8 533.27C441.093 530.923 439.207 527.95 437.14 524.35C436.973 524.057 436.91 523.743 436.95 523.41C438.75 508.51 439.417 493.57 438.95 478.59C438.53 464.77 437.53 448.81 439.45 436.4C444.39 404.52 467.88 378.09 499.8 371.94C548.34 362.6 583.96 402.24 585.97 447.84C586.303 455.32 586.397 468.953 586.25 488.74C586.17 498.92 586.143 504.15 586.17 504.43C586.83 512.4 589.8 518.61 593.02 525.81C593.153 526.117 593.133 526.41 592.96 526.69C585.427 538.997 577.857 551.28 570.25 563.54C540.477 611.493 510.57 659.363 480.53 707.15C478.543 710.317 476.893 713.54 475.58 716.82C475.525 716.959 475.504 717.11 475.52 717.259C475.536 717.408 475.588 717.55 475.672 717.675C475.756 717.799 475.869 717.901 476.001 717.971C476.133 718.042 476.28 718.079 476.43 718.08C483.483 718.1 490.583 718.1 497.73 718.08C501.59 718.07 507.28 707.54 509.22 704.37C531.51 667.9 553.73 631.4 576.07 594.97C588.663 574.43 601.803 554.043 615.49 533.81C615.632 533.6 615.823 533.429 616.046 533.31C616.27 533.191 616.518 533.13 616.77 533.13L705.47 532.76C705.638 532.76 705.8 532.719 705.936 532.643C706.072 532.567 706.178 532.459 706.24 532.33C716.87 510.63 731.18 494.01 747.43 474.99C753.36 468.05 757.04 461.86 759.9 453.86C762.02 447.93 761.24 440.38 761.38 434.1C761.513 427.493 762.833 421.203 765.34 415.23C767.31 410.54 771.3 405.3 774.11 400.18C774.189 400.037 774.239 399.88 774.256 399.717C774.273 399.553 774.257 399.388 774.21 399.23C772.717 394.203 771.157 389.24 769.53 384.34C768.997 382.733 769.41 381.557 770.77 380.81C771.041 380.661 771.356 380.612 771.66 380.67C781.57 382.51 791.12 390.55 790.28 401.6C789.92 406.27 788.04 410.42 786.19 415.03C784.99 418.01 786.8 419.49 789.64 419.63C801.7 420.24 813.06 413.14 820.88 403.81C821.087 403.563 821.33 403.36 821.61 403.2C822.137 402.893 822.537 402.36 822.81 401.6C825.18 394.97 831.46 378.88 837.43 374.72C841.21 372.08 851.43 372.2 849.92 379.58C846.92 394.213 843.013 408.593 838.2 422.72C835.4 430.94 832.16 433.98 825.73 439.2C819.58 444.19 813.35 449 807 453.75C799.53 459.34 795.34 461.93 792.29 468.65C789.68 474.38 787.55 481.15 785.97 487.98C779.65 515.26 773.617 542.607 767.87 570.02C767.757 570.56 767.097 571.22 765.89 572C756.22 578.28 746.91 584.34 737.68 591.63C723.287 602.997 708.877 614.34 694.45 625.66C678.87 637.87 660.64 647.26 642.74 655.57C640.747 656.497 637.337 658.85 632.51 662.63C623.94 669.33 620.03 676.6 617.05 687.66C613.997 698.953 611.903 710.277 610.77 721.63C610.741 721.894 610.803 722.16 610.945 722.385C611.088 722.609 611.302 722.778 611.554 722.865C611.805 722.951 612.079 722.949 612.329 722.859C612.579 722.769 612.791 722.597 612.93 722.37C617.723 714.757 622.943 707.627 628.59 700.98C630.18 699.11 632.31 698.2 634.87 699.05C643.54 701.92 665.18 714.07 656.17 725.8C645.397 739.827 634.647 753.53 623.92 766.91C623.695 767.192 623.533 767.519 623.445 767.869C623.358 768.218 623.346 768.582 623.412 768.936C623.477 769.29 623.618 769.626 623.825 769.92C624.032 770.214 624.299 770.459 624.61 770.64L632.76 775.37C633.367 775.723 633.963 775.707 634.55 775.32C638.503 772.707 642.4 770.14 646.24 767.62C667.69 753.57 695.19 748.83 718.23 761.25C742.13 774.13 751.85 801.03 741.82 826.41C734.39 845.22 719.27 855.34 702.08 864.6C699.64 865.92 697.99 867.74 695.94 869.56C695.802 869.678 695.693 869.826 695.621 869.992C695.548 870.158 695.514 870.339 695.52 870.52L696.04 885.09C696.048 885.361 696.161 885.617 696.355 885.806C696.549 885.995 696.809 886.1 697.08 886.1C730.567 886.073 764.027 886.08 797.46 886.12C808.44 886.14 812.71 898.97 802.98 904.83C800.18 906.51 792.47 907.08 788.14 907.08C601.273 907.093 414.403 907.093 227.53 907.08C210.34 907.08 207.33 886.12 226.28 886.11C257.927 886.083 289.573 886.077 321.22 886.09C322.84 886.09 324.463 885.983 326.09 885.77C326.403 885.73 326.567 885.553 326.58 885.24C326.94 877.86 328.48 868.51 322.3 865.78C287.4 850.38 265.71 814.88 286.55 777.89C287.49 776.217 289.297 774.037 291.97 771.35C305.58 757.64 328.15 751.23 346.8 754.72C362.75 757.69 376.29 766.31 389.63 775.01C389.781 775.111 389.951 775.178 390.131 775.207C390.31 775.237 390.494 775.227 390.67 775.18C399.94 772.64 407.51 762.12 411.41 753.98C416.63 743.12 416.3 730.25 413.74 718.34C411.133 706.207 408.37 694.96 405.45 684.6C403.69 678.367 401.787 673.7 399.74 670.6C392.89 660.25 382.96 657.04 372.73 651.07C369.877 649.41 366.337 647.077 362.11 644.07C336.417 625.81 310.713 607.573 285 589.36C284.94 589.313 283.68 588.363 281.22 586.51C276.14 582.67 269.76 579.94 264.09 577.02C260.17 575 256.04 571.81 255.12 567.22C248.87 535.93 241.9 504.9 233.56 474.11C231.43 466.25 227.61 461.16 221.27 456.62C212.51 450.36 204.14 443.54 195.65 436.93C188.92 431.69 185.68 426.14 182.95 417.49C178.917 404.71 175.687 392.577 173.26 381.09C171.3 371.81 181.99 371.6 186.82 375.43C188.353 376.643 190.023 379.103 191.83 382.81C194.517 388.297 197.127 393.827 199.66 399.4C205.72 412.73 221.59 421.71 235.88 418.83C236.987 418.61 237.37 417.963 237.03 416.89C235.56 412.16 233.15 406.77 232.98 402.3C232.56 391.52 241.23 383.39 250.96 380.74C251.847 380.5 252.42 380.403 252.68 380.45C254.04 380.71 254.48 381.49 254 382.79C252.33 387.33 247.66 396.67 250.2 401.09C254.26 408.15 259.83 415.88 260.79 424.29C261.38 429.48 261.61 438.68 261.87 445.73C262.21 455 268.76 466.5 274.39 472.92C285.257 485.34 295.893 497.953 306.3 510.76C311.547 517.22 315.687 524.35 318.72 532.15C318.887 532.583 319.203 532.8 319.67 532.8C349.717 532.833 379.817 532.907 409.97 533.02C412.62 533.03 416.08 532.56 418.31 534.24C419.823 535.373 421.647 538.053 423.78 542.28C423.933 542.573 424.137 542.82 424.39 543.02ZM468.41 473.9C477.4 481.33 488.05 477.09 498.08 475.21C511.96 472.62 522.83 474.14 536.83 477.12C548.84 479.67 559.79 478.17 562.96 464.59C564.85 456.47 566.34 439.51 553.76 439.62C526.087 439.86 498.417 439.93 470.75 439.83C467.28 439.82 463.28 440.74 462.3 444.12C459.91 452.43 460.56 467.42 468.41 473.9ZM438.25 743.6C431.46 743.6 430.96 758.57 440.98 759.5C448.38 760.193 455.793 760.63 463.22 760.81C501.76 761.75 541.2 762.84 579.47 759.62C586.54 759.02 592.06 755.06 589.39 747.09C588.21 743.59 585.82 743.08 582.45 743.16C534.45 744.31 486.27 743.59 438.25 743.6Z" fill="black"/>
<path d="M468.41 473.9C460.56 467.42 459.91 452.43 462.3 444.12C463.28 440.74 467.28 439.82 470.75 439.83C498.417 439.93 526.087 439.86 553.76 439.62C566.34 439.51 564.85 456.47 562.96 464.59C559.79 478.17 548.84 479.67 536.83 477.12C522.83 474.14 511.96 472.62 498.08 475.21C488.05 477.09 477.4 481.33 468.41 473.9ZM505.59 454.86L475.19 453.8C475.145 453.8 475.102 453.818 475.07 453.85C475.038 453.882 475.02 453.925 475.02 453.97V454C474.932 456.591 476.451 459.132 479.243 461.063C482.035 462.995 485.872 464.159 489.91 464.3L490.19 464.31C494.229 464.451 498.137 463.556 501.057 461.824C503.977 460.091 505.669 457.662 505.76 455.07V455.04C505.761 455.017 505.758 454.994 505.75 454.972C505.742 454.95 505.73 454.93 505.714 454.913C505.698 454.896 505.679 454.883 505.657 454.874C505.636 454.865 505.613 454.86 505.59 454.86ZM549.24 454.03L518.9 455.09C518.878 455.091 518.856 455.097 518.836 455.107C518.816 455.116 518.797 455.13 518.783 455.147C518.768 455.164 518.756 455.183 518.749 455.204C518.742 455.225 518.739 455.248 518.74 455.27V455.31C518.833 457.931 520.523 460.389 523.439 462.142C526.356 463.896 530.259 464.802 534.29 464.66L534.57 464.65C538.599 464.508 542.427 463.332 545.211 461.38C547.996 459.428 549.51 456.86 549.42 454.24V454.2C549.42 454.177 549.415 454.154 549.406 454.133C549.397 454.111 549.384 454.092 549.367 454.076C549.35 454.06 549.33 454.048 549.308 454.04C549.286 454.032 549.263 454.029 549.24 454.03Z" fill="white"/>
<path d="M505.59 454.86C505.613 454.86 505.636 454.865 505.657 454.874C505.679 454.883 505.698 454.896 505.714 454.913C505.73 454.93 505.742 454.95 505.75 454.972C505.758 454.994 505.761 455.017 505.76 455.04V455.07C505.669 457.662 503.977 460.091 501.057 461.824C498.137 463.556 494.228 464.451 490.19 464.31L489.91 464.3C485.872 464.159 482.035 462.995 479.243 461.063C476.451 459.132 474.932 456.591 475.02 454V453.97C475.02 453.925 475.038 453.882 475.07 453.85C475.102 453.818 475.145 453.8 475.19 453.8L505.59 454.86Z" fill="#021825"/>
<path d="M843.87 524.49C849.189 524.49 853.5 520.179 853.5 514.86C853.5 509.542 849.189 505.23 843.87 505.23C838.552 505.23 834.24 509.542 834.24 514.86C834.24 520.179 838.552 524.49 843.87 524.49Z" fill="black"/>
<path d="M180.21 531.3C185.849 531.3 190.42 526.729 190.42 521.09C190.42 515.451 185.849 510.88 180.21 510.88C174.571 510.88 170 515.451 170 521.09C170 526.729 174.571 531.3 180.21 531.3Z" fill="black"/>
<path d="M215.39 623.63C219.913 623.63 223.58 619.963 223.58 615.44C223.58 610.917 219.913 607.25 215.39 607.25C210.867 607.25 207.2 610.917 207.2 615.44C207.2 619.963 210.867 623.63 215.39 623.63Z" fill="black"/>
<path d="M809.63 623.35C814.043 623.35 817.62 619.773 817.62 615.36C817.62 610.947 814.043 607.37 809.63 607.37C805.217 607.37 801.64 610.947 801.64 615.36C801.64 619.773 805.217 623.35 809.63 623.35Z" fill="black"/>
<path d="M233.55 723.71C241.74 723.71 248.38 717.07 248.38 708.88C248.38 700.69 241.74 694.05 233.55 694.05C225.36 694.05 218.72 700.69 218.72 708.88C218.72 717.07 225.36 723.71 233.55 723.71Z" fill="black"/>
<path d="M789.33 723.53C797.443 723.53 804.02 716.953 804.02 708.84C804.02 700.727 797.443 694.15 789.33 694.15C781.217 694.15 774.64 700.727 774.64 708.84C774.64 716.953 781.217 723.53 789.33 723.53Z" fill="black"/>
<path d="M323.12 723.49C327.571 723.49 331.18 719.881 331.18 715.43C331.18 710.979 327.571 707.37 323.12 707.37C318.669 707.37 315.06 710.979 315.06 715.43C315.06 719.881 318.669 723.49 323.12 723.49Z" fill="black"/>
<path d="M705.97 724.21C710.427 724.21 714.04 720.597 714.04 716.14C714.04 711.683 710.427 708.07 705.97 708.07C701.513 708.07 697.9 711.683 697.9 716.14C697.9 720.597 701.513 724.21 705.97 724.21Z" fill="black"/>
<path d="M440.98 759.5C430.96 758.57 431.46 743.6 438.25 743.6C486.27 743.59 534.45 744.31 582.45 743.16C585.82 743.08 588.21 743.59 589.39 747.09C592.06 755.06 586.54 759.02 579.47 759.62C541.2 762.84 501.76 761.75 463.22 760.81C455.793 760.63 448.38 760.193 440.98 759.5Z" fill="white"/>
<path d="M511.72 317.34C561.702 317.34 602.22 276.822 602.22 226.84C602.22 176.858 561.702 136.34 511.72 136.34C461.738 136.34 421.22 176.858 421.22 226.84C421.22 276.822 461.738 317.34 511.72 317.34Z" fill="black"/>
<path d="M526.696 195.852C526.696 195.34 526.44 195.084 525.928 195.084H504.424C502.973 195.084 501.693 194.572 500.584 193.548C499.475 192.439 498.92 191.116 498.92 189.58C498.92 188.129 499.432 186.849 500.456 185.74C501.565 184.631 502.888 184.076 504.424 184.076H525.928C526.44 184.076 526.696 183.82 526.696 183.308V177.292C526.696 175.841 527.208 174.604 528.232 173.58C529.341 172.471 530.664 171.916 532.2 171.916C533.736 171.916 535.016 172.471 536.04 173.58C537.149 174.604 537.704 175.841 537.704 177.292V183.308C537.704 183.82 537.96 184.076 538.472 184.076H560.616C562.152 184.076 563.432 184.631 564.456 185.74C565.565 186.849 566.12 188.129 566.12 189.58C566.12 191.031 565.565 192.311 564.456 193.42C563.432 194.529 562.152 195.084 560.616 195.084H538.472C537.96 195.084 537.704 195.34 537.704 195.852V202.124C537.704 202.636 537.96 202.892 538.472 202.892H554.344C555.88 202.892 557.16 203.447 558.184 204.556C559.208 205.665 559.72 206.945 559.72 208.396C559.72 209.847 559.208 211.127 558.184 212.236C557.16 213.26 555.88 213.772 554.344 213.772H510.696C509.245 213.772 507.965 213.26 506.856 212.236C505.747 211.212 505.192 209.932 505.192 208.396C505.192 206.945 505.704 205.665 506.728 204.556C507.837 203.447 509.16 202.892 510.696 202.892H525.928C526.44 202.892 526.696 202.636 526.696 202.124V195.852ZM490.472 185.228H465.768C464.232 185.228 462.909 184.673 461.8 183.564C460.776 182.455 460.264 181.175 460.264 179.724C460.264 178.273 460.776 176.993 461.8 175.884C462.909 174.775 464.232 174.22 465.768 174.22H490.472C491.923 174.22 493.16 174.775 494.184 175.884C495.293 176.908 495.848 178.188 495.848 179.724C495.848 181.175 495.336 182.455 494.312 183.564C493.288 184.673 492.008 185.228 490.472 185.228ZM493.8 202.252H462.312C460.947 202.252 459.709 201.74 458.6 200.716C457.491 199.607 456.936 198.327 456.936 196.876C456.936 195.425 457.491 194.188 458.6 193.164C459.709 192.055 460.947 191.5 462.312 191.5H493.8C495.251 191.5 496.488 192.055 497.512 193.164C498.621 194.188 499.176 195.425 499.176 196.876C499.176 198.327 498.621 199.607 497.512 200.716C496.488 201.74 495.251 202.252 493.8 202.252ZM466.152 208.652H489.96C491.411 208.652 492.648 209.164 493.672 210.188C494.781 211.212 495.336 212.492 495.336 214.028C495.336 215.564 494.781 216.887 493.672 217.996C492.648 219.02 491.411 219.532 489.96 219.532H466.152C464.701 219.532 463.421 219.02 462.312 217.996C461.288 216.887 460.776 215.564 460.776 214.028C460.776 212.577 461.288 211.34 462.312 210.316C463.421 209.207 464.701 208.652 466.152 208.652ZM560.36 244.876C558.909 244.876 557.629 244.364 556.52 243.34C555.496 242.231 554.984 240.951 554.984 239.5V230.668C554.984 230.156 554.728 229.9 554.216 229.9H510.952C510.44 229.9 510.184 230.156 510.184 230.668V239.5C510.184 240.951 509.629 242.231 508.52 243.34C507.496 244.364 506.259 244.876 504.808 244.876C503.357 244.876 502.077 244.364 500.968 243.34C499.944 242.231 499.432 240.951 499.432 239.5V227.596C499.432 225.292 500.243 223.329 501.864 221.708C503.485 220.001 505.491 219.148 507.88 219.148H557.288C559.592 219.148 561.555 219.959 563.176 221.58C564.883 223.201 565.736 225.207 565.736 227.596V239.5C565.736 240.951 565.224 242.231 564.2 243.34C563.176 244.364 561.896 244.876 560.36 244.876ZM466.152 225.804H489.96C491.411 225.804 492.648 226.359 493.672 227.468C494.781 228.492 495.336 229.772 495.336 231.308C495.336 232.759 494.824 234.039 493.8 235.148C492.776 236.172 491.496 236.684 489.96 236.684H466.152C464.701 236.684 463.421 236.172 462.312 235.148C461.288 234.039 460.776 232.759 460.776 231.308C460.776 229.772 461.288 228.492 462.312 227.468C463.421 226.359 464.701 225.804 466.152 225.804ZM566.888 268.94C568.168 270.22 568.808 271.628 568.808 273.164C568.808 274.359 568.339 275.511 567.4 276.62C563.645 280.631 557.843 282.636 549.992 282.636C538.216 282.636 532.328 277.303 532.328 266.636V238.988C532.328 237.537 532.84 236.3 533.864 235.276C534.888 234.167 536.168 233.612 537.704 233.612C539.155 233.612 540.392 234.167 541.416 235.276C542.525 236.3 543.08 237.537 543.08 238.988V266.636C543.08 269.025 543.549 270.604 544.488 271.372C545.512 272.14 547.645 272.524 550.888 272.524C553.192 272.524 555.027 272.311 556.392 271.884C557.843 271.372 559.08 270.561 560.104 269.452C561.128 268.343 562.408 267.788 563.944 267.788C565.139 267.788 566.12 268.172 566.888 268.94ZM524.008 234.124C525.544 234.124 526.824 234.679 527.848 235.788C528.872 236.897 529.299 238.22 529.128 239.756C528.445 247.436 526.739 254.135 524.008 259.852C521.277 265.569 518.035 270.348 514.28 274.188C510.525 278.028 506.685 281.015 502.76 283.148C502.163 283.489 501.48 283.66 500.712 283.66C498.408 283.66 496.829 282.551 495.976 280.332C495.72 279.649 495.592 278.967 495.592 278.284C495.592 275.98 496.616 274.231 498.664 273.036C504.552 269.367 509.075 264.844 512.232 259.468C515.475 254.007 517.48 247.351 518.248 239.5C518.419 238.049 519.059 236.812 520.168 235.788C521.277 234.764 522.557 234.209 524.008 234.124ZM495.848 251.404V274.06C495.848 276.364 495.037 278.327 493.416 279.948C491.795 281.655 489.789 282.508 487.4 282.508H468.712C466.408 282.508 464.403 281.697 462.696 280.076C461.075 278.455 460.264 276.449 460.264 274.06V251.404C460.264 249.185 461.075 247.223 462.696 245.516C464.403 243.809 466.408 242.956 468.712 242.956H487.4C489.704 242.956 491.667 243.809 493.288 245.516C494.995 247.137 495.848 249.1 495.848 251.404ZM471.144 271.5C471.144 272.012 471.4 272.268 471.912 272.268H484.328C484.84 272.268 485.096 272.012 485.096 271.5V254.092C485.096 253.58 484.84 253.324 484.328 253.324H471.912C471.4 253.324 471.144 253.58 471.144 254.092V271.5Z" fill="white"/>
</g>
</g>
<circle cx="512" cy="230" r="87" fill="black"/>
<path d="M504.088 212.36L501.656 203.016L523.928 201.096V192.648H499.992L497.56 182.536L523.928 180.616V171.4L540.056 173.192L539.416 179.464L566.296 177.416V192.648H538.136L537.496 199.944L562.072 197.896V212.36H504.088ZM487.064 181.896C487.064 184.797 486.04 187.272 483.992 189.32C481.944 191.368 479.469 192.392 476.568 192.392C473.667 192.392 471.192 191.368 469.144 189.32C467.096 187.272 466.072 184.797 466.072 181.896C466.072 178.995 467.096 176.52 469.144 174.472C471.192 172.424 473.667 171.4 476.568 171.4C479.469 171.4 481.944 172.424 483.992 174.472C486.04 176.52 487.064 178.995 487.064 181.896ZM456.088 206.472L453.4 196.36L497.56 191.752V206.472H456.088ZM458.776 223.624L456.344 214.792L494.232 210.184V223.624H458.776ZM553.624 245.128V232.2H512.28V244.104L499.864 245.896L497.816 217.096H512.28V221.192L568.6 216.712L566.424 243.336L553.624 245.128ZM458.776 240.648L456.344 231.816L494.232 227.208V240.648H458.776ZM497.944 280.072C502.723 274.269 506.776 267.656 510.104 260.232C513.517 252.723 515.907 244.531 517.272 235.656L531.736 238.728C529.261 249.565 525.549 258.995 520.6 267.016C515.651 274.952 510.104 281.437 503.96 286.472L497.944 280.072ZM547.608 270.728C550.339 270.472 552.259 270.003 553.368 269.32C554.563 268.637 555.373 267.229 555.8 265.096C556.227 262.963 556.611 259.635 556.952 255.112H562.456L568.088 282.504C568.088 282.504 567.32 282.547 565.784 282.632C564.248 282.717 562.243 282.845 559.768 283.016C557.293 283.187 554.605 283.315 551.704 283.4C548.888 283.571 546.157 283.656 543.512 283.656C540.611 283.656 538.179 282.931 536.216 281.48C534.253 280.029 533.272 277.256 533.272 273.16V235.784L547.48 237.704L545.944 268.296V268.68C545.944 270.045 546.413 270.728 547.352 270.728H547.608ZM470.68 281.736V284.296L458.648 285.576L456.216 244.872H470.68V248.584L496.152 244.872L493.72 281.736H470.68ZM482.2 259.976H470.68V270.216L482.2 268.936V259.976Z" fill="white"/>
<rect x="475" y="445" width="75" height="25" fill="white"/>
<path d="M548.277 454.229C543.09 457.413 535.721 463.809 529.184 463.883C528.786 463.886 528.473 463.721 528.248 463.388C526.575 460.877 525.612 458.107 525.358 455.081C525.276 454.024 525.758 453.419 526.802 453.264C533.772 452.214 540.771 451.894 547.798 452.305C550.003 452.435 550.162 453.076 548.277 454.229Z" fill="black"/>
<path d="M477.405 454.183C482.592 457.367 489.961 463.763 496.498 463.837C496.896 463.841 497.209 463.675 497.434 463.342C499.107 460.831 500.07 458.062 500.324 455.036C500.406 453.979 499.924 453.373 498.88 453.218C491.909 452.168 484.911 451.849 477.884 452.259C475.679 452.389 475.519 453.031 477.405 454.183Z" fill="black"/>
</g>
<defs>
<clipPath id="clip0_1_2">
<rect width="1024" height="1024" fill="white"/>
</clipPath>
</defs>
</svg>
