<svg width="1024" height="1024" viewBox="0 0 1024 1024" fill="none" xmlns="http://www.w3.org/2000/svg">
<g clip-path="url(#clip0_1_2)">
<mask id="mask0_1_2" style="mask-type:luminance" maskUnits="userSpaceOnUse" x="-4" y="0" width="1024" height="1024">
<path d="M1020 0H-4V1024H1020V0Z" fill="white"/>
</mask>
<g mask="url(#mask0_1_2)">
<path d="M464.864 120.167C465.091 120.129 465.28 119.921 465.39 119.591C465.5 119.26 465.52 118.834 465.448 118.405C465.375 117.976 465.215 117.58 465.003 117.304C464.791 117.028 464.544 116.895 464.317 116.933C464.089 116.972 463.9 117.179 463.79 117.509C463.681 117.84 463.66 118.266 463.732 118.695C463.805 119.124 463.965 119.52 464.177 119.796C464.389 120.072 464.636 120.205 464.864 120.167Z" fill="black"/>
<path d="M279.312 145.86C279.579 145.813 279.831 145.7 280.054 145.528C280.277 145.357 280.468 145.13 280.614 144.861C280.76 144.591 280.86 144.285 280.907 143.958C280.954 143.632 280.948 143.292 280.888 142.959C280.768 142.285 280.439 141.677 279.974 141.269C279.509 140.86 278.945 140.684 278.408 140.78C278.141 140.827 277.889 140.94 277.666 141.112C277.443 141.283 277.252 141.51 277.106 141.779C276.96 142.049 276.86 142.355 276.813 142.682C276.766 143.008 276.772 143.348 276.832 143.681C276.952 144.355 277.281 144.963 277.746 145.372C278.211 145.78 278.775 145.956 279.312 145.86Z" fill="black"/>
<path d="M722.72 175.306C722.981 175.27 723.208 175.074 723.352 174.761C723.497 174.448 723.547 174.043 723.491 173.636C723.463 173.434 723.41 173.238 723.336 173.058C723.261 172.879 723.165 172.719 723.055 172.589C722.944 172.459 722.821 172.361 722.691 172.3C722.561 172.239 722.428 172.217 722.3 172.234C722.039 172.27 721.812 172.466 721.668 172.779C721.523 173.092 721.473 173.497 721.529 173.904C721.557 174.106 721.61 174.302 721.684 174.482C721.759 174.661 721.855 174.821 721.965 174.951C722.076 175.081 722.199 175.179 722.329 175.24C722.459 175.301 722.592 175.323 722.72 175.306Z" fill="black"/>
<path d="M557.582 191.485C558.084 191.449 558.55 191.191 558.877 190.769C559.204 190.347 559.365 189.795 559.325 189.234C559.305 188.957 559.237 188.685 559.123 188.435C559.009 188.186 558.853 187.962 558.663 187.779C558.473 187.595 558.253 187.454 558.015 187.364C557.778 187.275 557.527 187.238 557.278 187.255C556.776 187.291 556.31 187.549 555.983 187.971C555.656 188.393 555.495 188.945 555.535 189.506C555.555 189.784 555.624 190.055 555.737 190.305C555.851 190.554 556.007 190.778 556.197 190.961C556.387 191.145 556.607 191.286 556.845 191.376C557.082 191.465 557.333 191.502 557.582 191.485Z" fill="black"/>
<path d="M703.43 272.79C721.48 270.93 739.76 260.08 752.5 247.72C752.833 247.4 752.883 247.04 752.65 246.64C747.183 237.313 741.243 228.297 734.83 219.59C734.687 219.397 734.487 219.254 734.259 219.179C734.03 219.105 733.784 219.103 733.555 219.175C733.325 219.246 733.124 219.387 732.978 219.578C732.832 219.768 732.749 220 732.74 220.24C732.01 241.97 711.29 249.65 693.73 254.95C678.36 259.59 662.74 263.26 648.17 270.29C647.87 270.437 647.597 270.39 647.35 270.15C634.98 258.02 620.07 252.12 602.93 251.52C559.22 249.98 527.04 280.06 529.91 324.03C529.918 324.163 529.956 324.293 530.019 324.41C530.083 324.528 530.171 324.631 530.278 324.711C530.385 324.792 530.509 324.849 530.64 324.878C530.772 324.907 530.908 324.908 531.04 324.88C547.313 321.433 563.46 317.467 579.48 312.98C579.653 312.931 579.834 312.917 580.012 312.94C580.19 312.963 580.362 313.023 580.516 313.114C580.671 313.206 580.805 313.329 580.91 313.474C581.016 313.619 581.091 313.785 581.13 313.96L586.52 338.2C586.554 338.351 586.536 338.509 586.469 338.649C586.401 338.789 586.289 338.902 586.15 338.97C570.077 346.65 553.38 352.563 536.06 356.71C535.878 356.754 535.708 356.837 535.562 356.954C535.416 357.071 535.298 357.219 535.215 357.387C535.133 357.556 535.089 357.74 535.087 357.927C535.084 358.114 535.123 358.3 535.2 358.47C544.607 378.997 559.697 393.687 580.47 402.54C583.63 403.887 587.417 404.65 591.83 404.83C591.917 404.837 591.97 404.87 591.99 404.93C591.997 404.963 592 404.997 592 405.03C591.993 405.15 591.91 405.213 591.75 405.22C584.8 405.57 575.29 401.54 568.63 397.89C551.043 388.237 532.833 379.94 514 373C491.313 364.64 456.357 352.96 409.13 337.96C380.94 329.01 352.37 322.42 323.84 314.76C323.16 314.58 322.723 314.827 322.53 315.5C321.843 317.907 321.643 320.333 321.93 322.78C321.97 323.127 321.823 323.25 321.49 323.15C310.423 319.983 300.207 315.16 290.84 308.68C282.08 302.62 270.3 294.79 259.06 296.56C248.42 298.24 241.16 311.46 238.45 320.73C237.2 325 237.66 328.47 240.59 331.65C249.53 341.38 264.27 354.93 278.48 353.77C291.68 352.68 308.99 351.41 318.76 360.37C326.42 367.4 334.65 373.97 342.66 380.59C347.77 384.81 351.79 388.63 357.97 390.44C405.5 404.36 458.9 422.24 502.96 448C510.39 452.34 518.25 459.87 521.02 468.25C521.81 470.63 523.85 477.52 521.78 479.61C517.15 484.29 512.04 487.05 511.03 494.25C510.57 497.523 510.053 500.797 509.48 504.07C509.413 504.437 509.547 504.703 509.88 504.87C537.92 519.39 571.19 518.8 600.51 508.78C643.54 494.08 675 456.15 677.02 410C677.61 396.25 674.09 386.71 667.45 375.12C662.543 366.547 660.373 357.593 660.94 348.26C662.36 324.87 663.98 305.73 655.44 284.21C655.313 283.903 655.417 283.727 655.75 283.68C669.883 281.887 683.037 284.583 695.21 291.77C704.8 297.44 714.78 303.67 724.32 308.11C731.787 311.59 739.537 314.73 747.57 317.53C747.924 317.654 748.309 317.653 748.662 317.527C749.015 317.402 749.314 317.159 749.51 316.84C755.503 307.08 759.533 296.56 761.6 285.28C761.62 285.167 761.612 285.052 761.576 284.943C761.541 284.834 761.479 284.737 761.396 284.659C761.313 284.581 761.212 284.526 761.103 284.498C760.994 284.47 760.879 284.471 760.77 284.5C738.96 290 722.68 281.02 703.37 273.24C702.79 273.007 702.81 272.857 703.43 272.79Z" fill="black"/>
<path d="M548.87 343.01C555.1 341.03 560.28 332.76 564.31 328.2C565.777 326.547 565.437 325.98 563.29 326.5C556.45 328.16 549.85 330.51 543.49 333.55C542.537 334.003 542.253 334.723 542.64 335.71C543.767 338.53 545.497 340.897 547.83 342.81C548.143 343.063 548.49 343.13 548.87 343.01Z" fill="black"/>
<path d="M156.73 357.62C166.47 352.24 144.82 345.01 142.03 344.06C116.66 335.43 95.27 328.69 69.22 328.13C69.1724 328.13 69.1255 328.147 69.0881 328.178C69.0507 328.209 69.0254 328.251 69.0169 328.298C69.0083 328.344 69.0172 328.391 69.0417 328.431C69.0662 328.47 69.1046 328.498 69.15 328.51C84.65 333.663 99.94 339.51 115.02 346.05C130.733 352.87 140.88 356.957 145.46 358.31C149.813 359.59 153.57 359.36 156.73 357.62Z" fill="black"/>
<path d="M579.19 759.43C579.183 759.463 579.167 759.497 579.14 759.53C579.107 759.577 579.05 759.607 578.97 759.62C553.63 763.99 529.4 772.02 505.04 780.17C504.74 780.27 504.623 780.473 504.69 780.78L508.53 798.13C508.61 798.483 508.47 798.66 508.11 798.66L447.59 799.65C447.376 799.653 447.167 799.59 446.992 799.47C446.816 799.35 446.683 799.179 446.61 798.98C443.09 789.23 433.37 775.76 423.19 772.33C418.51 770.757 414.403 772.603 410.87 777.87C403.98 788.14 396.73 801.91 386.97 808.97C375.417 817.323 365.007 826.903 355.74 837.71C349.2 845.32 326.23 878.55 353.83 876.53C379.05 874.69 403.21 860.11 423.62 845.63C428.77 841.97 431 841.21 437 840.79C454.747 839.537 478.977 838.17 509.69 836.69C513.443 836.51 516.343 836.45 518.39 836.51C518.723 836.517 518.907 836.687 518.94 837.02L519.28 840.93C519.32 841.363 519.557 841.587 519.99 841.6C558.23 842.69 597.39 843.73 635.42 839.08C654.76 836.72 673.46 831.4 683.22 813.25C695.83 789.77 687.02 757.83 673.05 736.97C665.283 725.377 654.933 713.463 642 701.23C621.12 681.49 598.52 662.55 579.95 646.63C579.677 646.397 579.623 646.12 579.79 645.8C582.097 641.5 583.317 636.897 583.45 631.99C583.457 631.663 583.613 631.45 583.92 631.35C610.14 622.75 634.64 610.667 657.42 595.1C668.773 587.34 678.03 578.367 685.19 568.18C695.437 553.593 705.283 538.98 714.73 524.34C714.921 524.047 715.187 523.811 715.501 523.658C715.814 523.505 716.163 523.44 716.51 523.47C771.33 528.13 826.16 532.72 881 537.24C882.967 537.4 886.913 537.557 892.84 537.71C900.38 537.9 910.8 530.7 917.47 526.96C917.763 526.793 918.077 526.737 918.41 526.79C932.37 528.863 946.32 530.98 960.26 533.14C971.89 534.94 981.05 531.12 988.88 522.82C991.54 520 993.69 517.89 994.13 514.7C995.51 504.88 990.38 493.98 979.99 491.73C970.537 489.677 960.947 490.31 951.22 493.63C947.16 495.01 942.43 497.3 938.16 497.53C930.57 497.96 923.04 496.49 915.18 496.54C914.913 496.54 914.763 496.407 914.73 496.14L913.87 488.8C913.844 488.595 913.74 488.408 913.58 488.28C912.233 487.193 910.543 486.413 908.51 485.94C884.83 480.47 860.5 476.69 836.57 472.39C827.543 470.77 820.61 468.737 815.77 466.29C776.55 446.443 737.157 426.217 697.59 405.61C696.323 404.943 695.723 405.327 695.79 406.76C696.89 428.81 693.61 448.45 682.85 467.59C654.9 517.29 597.47 543.11 541.65 534.78C527.54 532.67 517.02 527.08 504.63 521.05C501.93 519.73 499.97 520.16 497.59 521.61C490.57 525.88 485.06 530.9 484.57 539.7C484.55 540.047 484.383 540.14 484.07 539.98C436.78 515.45 389.01 491.89 341.76 467.28C305.747 448.513 268.353 433 229.58 420.74C229.427 420.693 229.262 420.703 229.117 420.767C228.971 420.832 228.855 420.946 228.79 421.09L217.64 445.2C217.639 445.204 217.637 445.208 217.634 445.211C217.631 445.214 217.628 445.216 217.624 445.218C217.62 445.22 217.616 445.221 217.612 445.222C217.608 445.222 217.604 445.221 217.6 445.22C217.596 445.219 217.592 445.217 217.589 445.214C217.586 445.211 217.584 445.208 217.582 445.204C217.58 445.2 217.579 445.196 217.578 445.192C217.578 445.188 217.579 445.184 217.58 445.18C218.587 440.02 218.953 434.803 218.68 429.53C218.662 429.193 218.544 428.87 218.341 428.601C218.138 428.331 217.859 428.129 217.54 428.02C195.547 420.533 173.647 412.323 151.84 403.39C143.7 400.06 137.45 394.63 130.63 389.62C115.043 378.18 97.687 370.867 78.56 367.68C71.28 366.47 46.96 364.08 46.69 377.25C46.44 389.62 60.11 414.39 72.43 418.1C85.2 421.94 97.65 426.64 110.46 430.42C117.68 432.54 125.35 434.03 132.85 435.64C140.19 437.22 144.93 439.61 151.42 443.1C169.34 452.713 187.257 462.33 205.17 471.95C205.423 472.09 205.497 472.293 205.39 472.56L200.12 485.48C199.918 485.975 199.899 486.525 200.065 487.034C200.232 487.543 200.574 487.978 201.03 488.26C259.21 524.26 316.86 561.53 370.93 604.31C401.01 628.1 430.75 652.49 459.38 678C489.4 704.73 521.13 731.37 555.04 752.18C563.55 757.4 569.5 760.07 579.08 759.32C579.173 759.313 579.21 759.35 579.19 759.43Z" fill="black"/>
<path d="M60.1 434.53C75.43 454.35 96.52 474.08 119.41 483.62C122.97 485.1 132.63 488.13 136.06 485.82C137.85 484.61 140.11 481.58 137.05 479.97C118.737 470.337 98.197 458.673 75.43 444.98C70.1567 441.813 65.14 438.24 60.38 434.26C60.3421 434.236 60.2972 434.225 60.2525 434.23C60.2078 434.234 60.1659 434.253 60.1336 434.285C60.1012 434.316 60.0803 434.357 60.0742 434.402C60.0681 434.446 60.0772 434.491 60.1 434.53Z" fill="black"/>
<path d="M406.6 448.09C418.647 455.45 430.817 462.32 443.11 468.7C455.44 475.1 472.1 481.28 486.14 480.78C486.336 480.774 486.524 480.702 486.673 480.574C486.822 480.447 486.924 480.273 486.96 480.08L487.99 474.61C488.063 474.25 487.92 474.03 487.56 473.95C465.19 468.94 449.64 458.95 427.17 445.58C425.283 444.46 423.72 444.073 422.48 444.42C417.173 445.927 411.913 447.003 406.7 447.65C406.247 447.703 406.213 447.85 406.6 448.09Z" fill="black"/>
<path d="M357.09 458.61C370.68 463.9 382.27 471.01 394.97 477.51C414.44 487.47 440.2 502.66 462.78 494.29C463.096 494.172 463.369 493.964 463.567 493.692C463.765 493.419 463.878 493.095 463.891 492.758C463.905 492.422 463.82 492.089 463.645 491.801C463.47 491.513 463.215 491.283 462.91 491.14C461.343 490.407 459.643 489.76 457.81 489.2C429.91 480.73 407.96 468.41 379.94 453.05C374.95 450.32 362.36 455.96 357.12 457.66C357.021 457.694 356.934 457.757 356.872 457.842C356.809 457.926 356.774 458.027 356.771 458.131C356.767 458.235 356.796 458.337 356.853 458.423C356.911 458.508 356.993 458.574 357.09 458.61Z" fill="black"/>
<path d="M40.14 534.51L37.28 534.57C37.1749 534.573 37.0714 534.596 36.9753 534.639C36.8793 534.681 36.7925 534.742 36.7201 534.818C36.6477 534.895 36.591 534.984 36.5532 535.082C36.5154 535.18 36.4974 535.285 36.5 535.39L36.51 535.62C36.5293 536.46 36.7688 537.26 37.1756 537.845C37.5825 538.43 38.1236 538.752 38.68 538.74H38.94C39.2161 538.734 39.4877 538.646 39.7392 538.481C39.9908 538.316 40.2173 538.077 40.4059 537.778C40.5944 537.479 40.7413 537.126 40.8381 536.738C40.9349 536.351 40.9797 535.937 40.97 535.52L40.96 535.29C40.9574 535.185 40.9341 535.081 40.8915 534.985C40.8489 534.889 40.7878 534.803 40.7116 534.73C40.6355 534.658 40.5458 534.601 40.4477 534.563C40.3496 534.525 40.2451 534.507 40.14 534.51Z" fill="black"/>
<path d="M156.179 561.623C156.434 561.465 156.652 561.254 156.821 561C156.989 560.747 157.105 560.456 157.162 560.145C157.218 559.834 157.215 559.508 157.151 559.187C157.087 558.865 156.964 558.555 156.79 558.272C156.437 557.701 155.895 557.28 155.282 557.101C154.669 556.922 154.035 557 153.521 557.317C153.266 557.475 153.048 557.686 152.879 557.94C152.711 558.193 152.595 558.484 152.538 558.795C152.482 559.106 152.485 559.432 152.549 559.753C152.613 560.075 152.736 560.385 152.91 560.668C153.263 561.239 153.805 561.66 154.418 561.839C155.032 562.018 155.665 561.94 156.179 561.623Z" fill="black"/>
<path d="M628.05 637.49C643.39 642.7 659.14 649.44 675.85 649.44C676.145 649.44 676.434 649.364 676.69 649.22C680.19 647.213 683.193 644.623 685.7 641.45C685.758 641.377 685.793 641.289 685.801 641.197C685.809 641.104 685.789 641.011 685.744 640.93C685.699 640.848 685.631 640.782 685.548 640.74C685.466 640.697 685.372 640.68 685.28 640.69C669.42 642.3 653.54 636.67 638.93 631.27C638.708 631.189 638.472 631.158 638.238 631.181C638.004 631.203 637.779 631.278 637.58 631.4L628.01 637.12C627.757 637.273 627.77 637.397 628.05 637.49Z" fill="black"/>
<path d="M375.55 636.85L374.68 637.79C374.643 637.829 374.615 637.876 374.596 637.926C374.577 637.977 374.568 638.03 374.57 638.084C374.572 638.138 374.584 638.191 374.606 638.24C374.629 638.289 374.661 638.333 374.7 638.37L375.1 638.74C375.275 638.903 375.463 639.048 375.655 639.167C375.846 639.285 376.037 639.375 376.216 639.431C376.395 639.487 376.559 639.507 376.699 639.492C376.839 639.476 376.951 639.425 377.03 639.34L377.26 639.1C377.339 639.016 377.384 638.9 377.39 638.759C377.396 638.618 377.364 638.455 377.297 638.28C377.229 638.104 377.126 637.919 376.995 637.736C376.863 637.552 376.705 637.374 376.53 637.21L376.13 636.83C376.091 636.793 376.044 636.764 375.994 636.746C375.943 636.727 375.89 636.718 375.836 636.72C375.782 636.722 375.729 636.734 375.68 636.756C375.631 636.779 375.587 636.811 375.55 636.85Z" fill="black"/>
<path d="M605.9 647.87C616.067 655.99 627.05 662.2 638.85 666.5C644.65 668.61 649.89 667.2 654.32 663.26C654.378 663.208 654.422 663.141 654.446 663.066C654.469 662.991 654.473 662.911 654.455 662.835C654.438 662.759 654.401 662.688 654.347 662.631C654.293 662.574 654.225 662.532 654.15 662.51C651.16 661.65 647.82 661.68 645.2 660.8C634 657.02 625.64 651.27 615.93 645.84C612.53 643.94 609.29 646.19 606.1 646.98C605.433 647.147 605.367 647.443 605.9 647.87Z" fill="black"/>
<path d="M24.46 687.82L25.96 689.31C26 689.35 26.0475 689.382 26.0998 689.404C26.1522 689.426 26.2083 689.437 26.265 689.437C26.3217 689.437 26.3778 689.426 26.4302 689.404C26.4825 689.382 26.5301 689.35 26.57 689.31L26.63 689.25C26.8084 689.071 26.9605 688.87 27.0777 688.657C27.1949 688.444 27.2748 688.224 27.3129 688.01C27.351 687.795 27.3465 687.59 27.2996 687.407C27.2528 687.223 27.1646 687.065 27.04 686.94L26.82 686.73C26.5674 686.481 26.1835 686.386 25.7524 686.464C25.3213 686.543 24.8782 686.79 24.52 687.15L24.46 687.21C24.4198 687.25 24.3879 687.298 24.3661 687.35C24.3443 687.402 24.3331 687.458 24.3331 687.515C24.3331 687.572 24.3443 687.628 24.3661 687.68C24.3879 687.733 24.4198 687.78 24.46 687.82Z" fill="black"/>
<path d="M192.39 897.42L192.68 901.01C192.69 901.131 192.724 901.249 192.78 901.357C192.836 901.464 192.912 901.56 193.005 901.638C193.098 901.716 193.206 901.775 193.321 901.812C193.437 901.848 193.559 901.861 193.68 901.85L195.08 901.73C195.359 901.708 195.632 901.636 195.882 901.518C196.133 901.4 196.356 901.239 196.539 901.044C196.722 900.849 196.861 900.624 196.949 900.381C197.037 900.138 197.071 899.883 197.05 899.63L196.92 898.06C196.878 897.55 196.615 897.079 196.187 896.751C195.76 896.422 195.203 896.264 194.64 896.31L193.23 896.43C192.988 896.45 192.763 896.566 192.606 896.752C192.448 896.937 192.371 897.177 192.39 897.42Z" fill="black"/>
<path d="M112.697 929.47C112.97 929.47 113.233 929.289 113.426 928.965C113.62 928.64 113.729 928.201 113.73 927.742C113.73 927.515 113.704 927.29 113.653 927.08C113.601 926.87 113.526 926.679 113.431 926.518C113.335 926.357 113.222 926.23 113.097 926.142C112.972 926.055 112.838 926.01 112.703 926.01C112.43 926.01 112.168 926.191 111.974 926.515C111.78 926.84 111.671 927.279 111.67 927.738C111.67 927.965 111.696 928.19 111.747 928.4C111.799 928.61 111.874 928.801 111.97 928.962C112.065 929.123 112.178 929.25 112.303 929.338C112.428 929.425 112.562 929.47 112.697 929.47Z" fill="black"/>
<path d="M494.11 568.29C486.03 566.1 476.91 563.69 469.14 563.51C447.41 562.99 429.15 577.79 415.52 593.05C415.511 593.063 415.506 593.08 415.506 593.097C415.506 593.114 415.512 593.129 415.522 593.142C415.531 593.154 415.545 593.161 415.559 593.163C415.574 593.164 415.588 593.16 415.6 593.15C438.86 576.68 465.68 570.47 493.75 568.71C493.99 568.697 494.133 568.6 494.18 568.42C494.2 568.353 494.177 568.31 494.11 568.29Z" fill="black"/>
<path d="M525.93 657.69C517.637 665.877 508.183 672.437 497.57 677.37C497.423 677.437 497.307 677.533 497.22 677.66C497.06 677.9 497.113 677.97 497.38 677.87C510.08 672.91 520.53 667.29 528 655.68C528.011 655.662 528.016 655.641 528.013 655.62C528.01 655.599 528 655.58 527.985 655.566C527.969 655.552 527.949 655.543 527.928 655.542C527.908 655.541 527.887 655.547 527.87 655.56C527.03 656.17 526.52 657.11 525.93 657.69Z" fill="black"/>
<path d="M463.732 118.695C463.883 119.588 464.39 120.247 464.864 120.167C465.337 120.087 465.599 119.298 465.448 118.405C465.297 117.512 464.79 116.853 464.316 116.933C463.843 117.013 463.581 117.802 463.732 118.695Z" fill="black"/>
<path d="M276.832 143.681C277.082 145.084 278.192 146.06 279.312 145.86C280.433 145.661 281.138 144.362 280.888 142.959C280.638 141.556 279.528 140.58 278.408 140.78C277.287 140.98 276.582 142.278 276.832 143.681Z" fill="black"/>
<path d="M721.529 173.904C721.645 174.752 722.179 175.38 722.72 175.306C723.262 175.231 723.607 174.484 723.491 173.636C723.375 172.788 722.841 172.16 722.3 172.234C721.758 172.309 721.413 173.056 721.529 173.904Z" fill="black"/>
<path d="M555.535 189.506C555.619 190.674 556.535 191.56 557.582 191.485C558.628 191.41 559.409 190.402 559.325 189.234C559.241 188.066 558.325 187.18 557.278 187.255C556.232 187.33 555.451 188.338 555.535 189.506Z" fill="black"/>
<path d="M703.37 273.24C722.68 281.02 738.96 290 760.77 284.5C760.879 284.471 760.994 284.47 761.103 284.498C761.212 284.526 761.313 284.581 761.396 284.659C761.479 284.737 761.541 284.834 761.576 284.943C761.612 285.052 761.62 285.167 761.6 285.28C759.533 296.56 755.503 307.08 749.51 316.84C749.314 317.159 749.015 317.402 748.662 317.527C748.309 317.653 747.924 317.654 747.57 317.53C739.537 314.73 731.787 311.59 724.32 308.11C714.78 303.67 704.8 297.44 695.21 291.77C683.037 284.583 669.883 281.887 655.75 283.68C655.417 283.727 655.313 283.903 655.44 284.21C663.98 305.73 662.36 324.87 660.94 348.26C660.373 357.593 662.543 366.547 667.45 375.12C674.09 386.71 677.61 396.25 677.02 410C675 456.15 643.54 494.08 600.51 508.78C571.19 518.8 537.92 519.39 509.88 504.87C509.547 504.703 509.413 504.437 509.48 504.07C510.053 500.797 510.57 497.523 511.03 494.25C512.04 487.05 517.15 484.29 521.78 479.61C523.85 477.52 521.81 470.63 521.02 468.25C518.25 459.87 510.39 452.34 502.96 448C458.9 422.24 405.5 404.36 357.97 390.44C351.79 388.63 347.77 384.81 342.66 380.59C334.65 373.97 326.42 367.4 318.76 360.37C308.99 351.41 291.68 352.68 278.48 353.77C264.27 354.93 249.53 341.38 240.59 331.65C237.66 328.47 237.2 325 238.45 320.73C241.16 311.46 248.42 298.24 259.06 296.56C270.3 294.79 282.08 302.62 290.84 308.68C300.207 315.16 310.423 319.983 321.49 323.15C321.823 323.25 321.97 323.127 321.93 322.78C321.643 320.333 321.843 317.907 322.53 315.5C322.723 314.827 323.16 314.58 323.84 314.76C352.37 322.42 380.94 329.01 409.13 337.96C456.357 352.96 491.313 364.64 514 373C532.833 379.94 551.043 388.237 568.63 397.89C575.29 401.54 584.8 405.57 591.75 405.22C591.91 405.213 591.993 405.15 592 405.03C592 404.997 591.997 404.963 591.99 404.93C591.97 404.87 591.917 404.837 591.83 404.83C587.417 404.65 583.63 403.887 580.47 402.54C559.697 393.687 544.607 378.997 535.2 358.47C535.123 358.3 535.084 358.114 535.087 357.927C535.089 357.74 535.133 357.556 535.215 357.387C535.298 357.219 535.416 357.071 535.562 356.954C535.708 356.837 535.878 356.754 536.06 356.71C553.38 352.563 570.077 346.65 586.15 338.97C586.289 338.902 586.401 338.789 586.469 338.649C586.536 338.509 586.554 338.351 586.52 338.2L581.13 313.96C581.091 313.785 581.016 313.619 580.91 313.474C580.805 313.329 580.671 313.206 580.516 313.114C580.362 313.023 580.19 312.963 580.012 312.94C579.834 312.917 579.653 312.931 579.48 312.98C563.46 317.467 547.313 321.433 531.04 324.88C530.908 324.908 530.772 324.907 530.64 324.878C530.509 324.849 530.385 324.792 530.278 324.711C530.171 324.631 530.083 324.528 530.019 324.41C529.956 324.293 529.918 324.163 529.91 324.03C527.04 280.06 559.22 249.98 602.93 251.52C620.07 252.12 634.98 258.02 647.35 270.15C647.597 270.39 647.87 270.437 648.17 270.29C662.74 263.26 678.36 259.59 693.73 254.95C711.29 249.65 732.01 241.97 732.74 220.24C732.749 220 732.832 219.768 732.978 219.578C733.124 219.387 733.325 219.246 733.555 219.175C733.784 219.103 734.03 219.105 734.259 219.179C734.487 219.254 734.687 219.397 734.83 219.59C741.243 228.297 747.183 237.313 752.65 246.64C752.883 247.04 752.833 247.4 752.5 247.72C739.76 260.08 721.48 270.93 703.43 272.79C702.81 272.857 702.79 273.007 703.37 273.24Z" fill="black"/>
<path d="M564.31 328.2C560.28 332.76 555.1 341.03 548.87 343.01C548.49 343.13 548.143 343.063 547.83 342.81C545.497 340.897 543.767 338.53 542.64 335.71C542.253 334.723 542.537 334.003 543.49 333.55C549.85 330.51 556.45 328.16 563.29 326.5C565.437 325.98 565.777 326.547 564.31 328.2Z" fill="black"/>
<path d="M142.03 344.06C144.82 345.01 166.47 352.24 156.73 357.62C153.57 359.36 149.813 359.59 145.46 358.31C140.88 356.957 130.733 352.87 115.02 346.05C99.94 339.51 84.65 333.663 69.15 328.51C69.1046 328.498 69.0662 328.47 69.0417 328.43C69.0172 328.391 69.0083 328.344 69.0169 328.298C69.0254 328.251 69.0507 328.209 69.0881 328.178C69.1255 328.147 69.1724 328.13 69.22 328.13C95.27 328.69 116.66 335.43 142.03 344.06Z" fill="black"/>
<path d="M579.08 759.32C569.5 760.07 563.55 757.4 555.04 752.18C521.13 731.37 489.4 704.73 459.38 678C430.75 652.49 401.01 628.1 370.93 604.31C316.86 561.53 259.21 524.26 201.03 488.26C200.574 487.978 200.232 487.543 200.065 487.034C199.899 486.525 199.918 485.975 200.12 485.48L205.39 472.56C205.497 472.293 205.423 472.09 205.17 471.95C187.257 462.33 169.34 452.713 151.42 443.1C144.93 439.61 140.19 437.22 132.85 435.64C125.35 434.03 117.68 432.54 110.46 430.42C97.65 426.64 85.2 421.94 72.43 418.1C60.11 414.39 46.44 389.62 46.69 377.25C46.96 364.08 71.28 366.47 78.56 367.68C97.687 370.867 115.043 378.18 130.63 389.62C137.45 394.63 143.7 400.06 151.84 403.39C173.647 412.323 195.547 420.533 217.54 428.02C217.859 428.129 218.138 428.331 218.341 428.601C218.544 428.87 218.662 429.193 218.68 429.53C218.953 434.803 218.587 440.02 217.58 445.18C217.579 445.184 217.578 445.188 217.578 445.192C217.579 445.196 217.58 445.2 217.582 445.204C217.584 445.208 217.586 445.211 217.589 445.214C217.592 445.217 217.596 445.219 217.6 445.22C217.604 445.221 217.608 445.222 217.612 445.222C217.616 445.221 217.62 445.22 217.624 445.218C217.628 445.216 217.631 445.214 217.634 445.211C217.637 445.208 217.639 445.204 217.64 445.2L228.79 421.09C228.855 420.946 228.971 420.832 229.117 420.767C229.262 420.703 229.427 420.693 229.58 420.74C268.353 433 305.747 448.513 341.76 467.28C389.01 491.89 436.78 515.45 484.07 539.98C484.383 540.14 484.55 540.047 484.57 539.7C485.06 530.9 490.57 525.88 497.59 521.61C499.97 520.16 501.93 519.73 504.63 521.05C517.02 527.08 527.54 532.67 541.65 534.78C597.47 543.11 654.9 517.29 682.85 467.59C693.61 448.45 696.89 428.81 695.79 406.76C695.723 405.327 696.323 404.943 697.59 405.61C737.157 426.217 776.55 446.443 815.77 466.29C820.61 468.737 827.543 470.77 836.57 472.39C860.5 476.69 884.83 480.47 908.51 485.94C910.543 486.413 912.233 487.193 913.58 488.28C913.74 488.408 913.844 488.595 913.87 488.8L914.73 496.14C914.763 496.407 914.913 496.54 915.18 496.54C923.04 496.49 930.57 497.96 938.16 497.53C942.43 497.3 947.16 495.01 951.22 493.63C960.947 490.31 970.537 489.677 979.99 491.73C990.38 493.98 995.51 504.88 994.13 514.7C993.69 517.89 991.54 520 988.88 522.82C981.05 531.12 971.89 534.94 960.26 533.14C946.32 530.98 932.37 528.863 918.41 526.79C918.077 526.737 917.763 526.793 917.47 526.96C910.8 530.7 900.38 537.9 892.84 537.71C886.913 537.557 882.967 537.4 881 537.24C826.16 532.72 771.33 528.13 716.51 523.47C716.163 523.44 715.814 523.505 715.501 523.658C715.187 523.811 714.921 524.047 714.73 524.34C705.283 538.98 695.437 553.593 685.19 568.18C678.03 578.367 668.773 587.34 657.42 595.1C634.64 610.667 610.14 622.75 583.92 631.35C583.613 631.45 583.457 631.663 583.45 631.99C583.317 636.897 582.097 641.5 579.79 645.8C579.623 646.12 579.677 646.397 579.95 646.63C598.52 662.55 621.12 681.49 642 701.23C654.933 713.463 665.283 725.377 673.05 736.97C687.02 757.83 695.83 789.77 683.22 813.25C673.46 831.4 654.76 836.72 635.42 839.08C597.39 843.73 558.23 842.69 519.99 841.6C519.557 841.587 519.32 841.363 519.28 840.93L518.94 837.02C518.907 836.687 518.723 836.517 518.39 836.51C516.343 836.45 513.443 836.51 509.69 836.69C478.977 838.17 454.747 839.537 437 840.79C431 841.21 428.77 841.97 423.62 845.63C403.21 860.11 379.05 874.69 353.83 876.53C326.23 878.55 349.2 845.32 355.74 837.71C365.007 826.903 375.417 817.323 386.97 808.97C396.73 801.91 403.98 788.14 410.87 777.87C414.403 772.603 418.51 770.757 423.19 772.33C433.37 775.76 443.09 789.23 446.61 798.98C446.683 799.179 446.816 799.35 446.992 799.47C447.167 799.59 447.376 799.653 447.59 799.65L508.11 798.66C508.47 798.66 508.61 798.483 508.53 798.13L504.69 780.78C504.623 780.473 504.74 780.27 505.04 780.17C529.4 772.02 553.63 763.99 578.97 759.62C579.05 759.607 579.107 759.577 579.14 759.53C579.167 759.497 579.183 759.463 579.19 759.43C579.21 759.35 579.173 759.313 579.08 759.32ZM494.11 568.29C486.03 566.1 476.91 563.69 469.14 563.51C447.41 562.99 429.15 577.79 415.52 593.05C415.511 593.063 415.506 593.08 415.506 593.097C415.506 593.114 415.512 593.129 415.522 593.142C415.531 593.154 415.545 593.161 415.559 593.163C415.574 593.164 415.588 593.16 415.6 593.15C438.86 576.68 465.68 570.47 493.75 568.71C493.99 568.697 494.133 568.6 494.18 568.42C494.2 568.353 494.177 568.31 494.11 568.29ZM525.93 657.69C517.637 665.877 508.183 672.437 497.57 677.37C497.423 677.437 497.307 677.533 497.22 677.66C497.06 677.9 497.113 677.97 497.38 677.87C510.08 672.91 520.53 667.29 528 655.68C528.011 655.662 528.016 655.641 528.013 655.62C528.01 655.599 528 655.58 527.985 655.566C527.969 655.552 527.949 655.543 527.928 655.542C527.908 655.541 527.887 655.547 527.87 655.56C527.03 656.17 526.52 657.11 525.93 657.69Z" fill="black"/>
<path d="M119.41 483.62C96.52 474.08 75.43 454.35 60.1 434.53C60.0772 434.491 60.0681 434.446 60.0742 434.402C60.0803 434.357 60.1012 434.316 60.1336 434.285C60.1659 434.253 60.2078 434.234 60.2525 434.23C60.2972 434.225 60.3421 434.236 60.38 434.26C65.14 438.24 70.1567 441.813 75.43 444.98C98.197 458.673 118.737 470.337 137.05 479.97C140.11 481.58 137.85 484.61 136.06 485.82C132.63 488.13 122.97 485.1 119.41 483.62Z" fill="black"/>
<path d="M406.6 448.09C406.213 447.85 406.247 447.703 406.7 447.65C411.913 447.003 417.173 445.927 422.48 444.42C423.72 444.073 425.283 444.46 427.17 445.58C449.64 458.95 465.19 468.94 487.56 473.95C487.92 474.03 488.063 474.25 487.99 474.61L486.96 480.08C486.924 480.273 486.822 480.447 486.673 480.574C486.524 480.702 486.336 480.774 486.14 480.78C472.1 481.28 455.44 475.1 443.11 468.7C430.817 462.32 418.647 455.45 406.6 448.09Z" fill="black"/>
<path d="M357.09 458.61C356.993 458.574 356.911 458.508 356.853 458.423C356.796 458.337 356.767 458.235 356.771 458.131C356.774 458.027 356.809 457.926 356.872 457.842C356.934 457.757 357.021 457.694 357.12 457.66C362.36 455.96 374.95 450.32 379.94 453.05C407.96 468.41 429.91 480.73 457.81 489.2C459.643 489.76 461.343 490.407 462.91 491.14C463.215 491.283 463.47 491.513 463.645 491.801C463.82 492.089 463.905 492.422 463.891 492.758C463.877 493.095 463.765 493.419 463.567 493.692C463.369 493.964 463.095 494.172 462.78 494.29C440.2 502.66 414.44 487.47 394.97 477.51C382.27 471.01 370.68 463.9 357.09 458.61Z" fill="black"/>
<path d="M40.14 534.51C40.2451 534.507 40.3496 534.525 40.4477 534.563C40.5458 534.601 40.6355 534.658 40.7116 534.73C40.7878 534.803 40.8489 534.889 40.8915 534.985C40.9341 535.081 40.9574 535.185 40.96 535.29L40.97 535.52C40.9797 535.937 40.9349 536.351 40.8381 536.738C40.7413 537.126 40.5944 537.479 40.4059 537.778C40.2173 538.077 39.9908 538.316 39.7392 538.481C39.4877 538.646 39.2161 538.734 38.94 538.74H38.68C38.1236 538.752 37.5825 538.43 37.1756 537.845C36.7688 537.26 36.5293 536.46 36.51 535.62L36.5 535.39C36.4974 535.285 36.5154 535.18 36.5532 535.082C36.591 534.984 36.6477 534.895 36.7201 534.818C36.7925 534.742 36.8793 534.681 36.9753 534.639C37.0714 534.596 37.1749 534.573 37.28 534.57L40.14 534.51Z" fill="black"/>
<path d="M152.91 560.668C153.644 561.857 155.108 562.284 156.179 561.623C157.251 560.961 157.524 559.461 156.79 558.272C156.056 557.083 154.592 556.656 153.521 557.317C152.449 557.979 152.176 559.479 152.91 560.668Z" fill="black"/>
<path d="M628.05 637.49C627.77 637.397 627.757 637.273 628.01 637.12L637.58 631.4C637.779 631.278 638.004 631.203 638.238 631.181C638.472 631.158 638.708 631.189 638.93 631.27C653.54 636.67 669.42 642.3 685.28 640.69C685.372 640.68 685.466 640.697 685.548 640.74C685.631 640.782 685.699 640.848 685.744 640.93C685.789 641.011 685.809 641.104 685.801 641.197C685.793 641.289 685.758 641.377 685.7 641.45C683.193 644.623 680.19 647.213 676.69 649.22C676.434 649.364 676.145 649.44 675.85 649.44C659.14 649.44 643.39 642.7 628.05 637.49Z" fill="black"/>
<path d="M375.55 636.85C375.587 636.811 375.631 636.779 375.68 636.756C375.729 636.734 375.782 636.722 375.836 636.72C375.89 636.718 375.943 636.727 375.994 636.746C376.044 636.764 376.091 636.793 376.13 636.83L376.53 637.21C376.705 637.374 376.863 637.552 376.995 637.736C377.126 637.919 377.229 638.104 377.297 638.28C377.364 638.455 377.396 638.618 377.39 638.759C377.384 638.9 377.339 639.016 377.26 639.1L377.03 639.34C376.951 639.425 376.839 639.476 376.699 639.492C376.559 639.507 376.395 639.487 376.216 639.431C376.037 639.375 375.846 639.285 375.654 639.167C375.463 639.048 375.275 638.903 375.1 638.74L374.7 638.37C374.661 638.333 374.629 638.289 374.606 638.24C374.584 638.191 374.572 638.138 374.57 638.084C374.568 638.03 374.577 637.977 374.596 637.926C374.615 637.876 374.643 637.829 374.68 637.79L375.55 636.85Z" fill="black"/>
<path d="M605.9 647.87C605.367 647.443 605.433 647.147 606.1 646.98C609.29 646.19 612.53 643.94 615.93 645.84C625.64 651.27 634 657.02 645.2 660.8C647.82 661.68 651.16 661.65 654.15 662.51C654.225 662.532 654.293 662.574 654.347 662.631C654.401 662.688 654.438 662.759 654.455 662.835C654.473 662.911 654.469 662.991 654.446 663.066C654.422 663.141 654.378 663.208 654.32 663.26C649.89 667.2 644.65 668.61 638.85 666.5C627.05 662.2 616.067 655.99 605.9 647.87Z" fill="black"/>
<path d="M24.46 687.82C24.4198 687.78 24.3879 687.733 24.3661 687.68C24.3443 687.628 24.3331 687.572 24.3331 687.515C24.3331 687.458 24.3443 687.402 24.3661 687.35C24.3879 687.298 24.4198 687.25 24.46 687.21L24.52 687.15C24.8782 686.79 25.3213 686.543 25.7524 686.464C26.1835 686.386 26.5674 686.481 26.82 686.73L27.04 686.94C27.1646 687.065 27.2528 687.223 27.2996 687.407C27.3465 687.59 27.351 687.795 27.3129 688.01C27.2748 688.224 27.1949 688.444 27.0777 688.657C26.9605 688.87 26.8084 689.071 26.63 689.25L26.57 689.31C26.5301 689.35 26.4825 689.382 26.4302 689.404C26.3778 689.426 26.3217 689.437 26.265 689.437C26.2083 689.437 26.1522 689.426 26.0998 689.404C26.0475 689.382 26 689.35 25.96 689.31L24.46 687.82Z" fill="black"/>
<path d="M192.39 897.42C192.371 897.177 192.448 896.937 192.606 896.752C192.763 896.566 192.988 896.45 193.23 896.43L194.64 896.31C195.203 896.264 195.76 896.422 196.187 896.751C196.615 897.079 196.878 897.55 196.92 898.06L197.05 899.63C197.071 899.883 197.037 900.138 196.949 900.381C196.861 900.624 196.722 900.849 196.539 901.044C196.356 901.239 196.133 901.4 195.882 901.518C195.632 901.636 195.359 901.708 195.08 901.73L193.68 901.85C193.559 901.861 193.437 901.848 193.321 901.812C193.206 901.775 193.098 901.716 193.005 901.638C192.912 901.56 192.836 901.464 192.78 901.357C192.724 901.249 192.69 901.131 192.68 901.01L192.39 897.42Z" fill="black"/>
<path d="M111.67 927.738C111.668 928.694 112.128 929.469 112.697 929.47C113.266 929.471 113.728 928.697 113.73 927.742C113.732 926.786 113.272 926.011 112.703 926.01C112.134 926.009 111.672 926.783 111.67 927.738Z" fill="black"/>
</g>
<path d="M223.655 615.485C223.655 614.625 223.225 614.195 222.365 614.195H186.245C183.808 614.195 181.658 613.335 179.795 611.615C177.932 609.752 177 607.53 177 604.95C177 602.513 177.86 600.363 179.58 598.5C181.443 596.637 183.665 595.705 186.245 595.705H222.365C223.225 595.705 223.655 595.275 223.655 594.415V584.31C223.655 581.873 224.515 579.795 226.235 578.075C228.098 576.212 230.32 575.28 232.9 575.28C235.48 575.28 237.63 576.212 239.35 578.075C241.213 579.795 242.145 581.873 242.145 584.31V594.415C242.145 595.275 242.575 595.705 243.435 595.705H280.63C283.21 595.705 285.36 596.637 287.08 598.5C288.943 600.363 289.875 602.513 289.875 604.95C289.875 607.387 288.943 609.537 287.08 611.4C285.36 613.263 283.21 614.195 280.63 614.195H243.435C242.575 614.195 242.145 614.625 242.145 615.485V626.02C242.145 626.88 242.575 627.31 243.435 627.31H270.095C272.675 627.31 274.825 628.242 276.545 630.105C278.265 631.968 279.125 634.118 279.125 636.555C279.125 638.992 278.265 641.142 276.545 643.005C274.825 644.725 272.675 645.585 270.095 645.585H196.78C194.343 645.585 192.193 644.725 190.33 643.005C188.467 641.285 187.535 639.135 187.535 636.555C187.535 634.118 188.395 631.968 190.115 630.105C191.978 628.242 194.2 627.31 196.78 627.31H222.365C223.225 627.31 223.655 626.88 223.655 626.02V615.485ZM162.81 597.64H121.315C118.735 597.64 116.513 596.708 114.65 594.845C112.93 592.982 112.07 590.832 112.07 588.395C112.07 585.958 112.93 583.808 114.65 581.945C116.513 580.082 118.735 579.15 121.315 579.15H162.81C165.247 579.15 167.325 580.082 169.045 581.945C170.908 583.665 171.84 585.815 171.84 588.395C171.84 590.832 170.98 592.982 169.26 594.845C167.54 596.708 165.39 597.64 162.81 597.64ZM168.4 626.235H115.51C113.217 626.235 111.138 625.375 109.275 623.655C107.412 621.792 106.48 619.642 106.48 617.205C106.48 614.768 107.412 612.69 109.275 610.97C111.138 609.107 113.217 608.175 115.51 608.175H168.4C170.837 608.175 172.915 609.107 174.635 610.97C176.498 612.69 177.43 614.768 177.43 617.205C177.43 619.642 176.498 621.792 174.635 623.655C172.915 625.375 170.837 626.235 168.4 626.235ZM121.96 636.985H161.95C164.387 636.985 166.465 637.845 168.185 639.565C170.048 641.285 170.98 643.435 170.98 646.015C170.98 648.595 170.048 650.817 168.185 652.68C166.465 654.4 164.387 655.26 161.95 655.26H121.96C119.523 655.26 117.373 654.4 115.51 652.68C113.79 650.817 112.93 648.595 112.93 646.015C112.93 643.578 113.79 641.5 115.51 639.78C117.373 637.917 119.523 636.985 121.96 636.985ZM280.2 697.83C277.763 697.83 275.613 696.97 273.75 695.25C272.03 693.387 271.17 691.237 271.17 688.8V673.965C271.17 673.105 270.74 672.675 269.88 672.675H197.21C196.35 672.675 195.92 673.105 195.92 673.965V688.8C195.92 691.237 194.988 693.387 193.125 695.25C191.405 696.97 189.327 697.83 186.89 697.83C184.453 697.83 182.303 696.97 180.44 695.25C178.72 693.387 177.86 691.237 177.86 688.8V668.805C177.86 664.935 179.222 661.638 181.945 658.915C184.668 656.048 188.037 654.615 192.05 654.615H275.04C278.91 654.615 282.207 655.977 284.93 658.7C287.797 661.423 289.23 664.792 289.23 668.805V688.8C289.23 691.237 288.37 693.387 286.65 695.25C284.93 696.97 282.78 697.83 280.2 697.83ZM121.96 665.795H161.95C164.387 665.795 166.465 666.727 168.185 668.59C170.048 670.31 170.98 672.46 170.98 675.04C170.98 677.477 170.12 679.627 168.4 681.49C166.68 683.21 164.53 684.07 161.95 684.07H121.96C119.523 684.07 117.373 683.21 115.51 681.49C113.79 679.627 112.93 677.477 112.93 675.04C112.93 672.46 113.79 670.31 115.51 668.59C117.373 666.727 119.523 665.795 121.96 665.795ZM291.165 738.25C293.315 740.4 294.39 742.765 294.39 745.345C294.39 747.352 293.602 749.287 292.025 751.15C285.718 757.887 275.972 761.255 262.785 761.255C243.005 761.255 233.115 752.297 233.115 734.38V687.94C233.115 685.503 233.975 683.425 235.695 681.705C237.415 679.842 239.565 678.91 242.145 678.91C244.582 678.91 246.66 679.842 248.38 681.705C250.243 683.425 251.175 685.503 251.175 687.94V734.38C251.175 738.393 251.963 741.045 253.54 742.335C255.26 743.625 258.843 744.27 264.29 744.27C268.16 744.27 271.242 743.912 273.535 743.195C275.972 742.335 278.05 740.973 279.77 739.11C281.49 737.247 283.64 736.315 286.22 736.315C288.227 736.315 289.875 736.96 291.165 738.25ZM219.14 679.77C221.72 679.77 223.87 680.702 225.59 682.565C227.31 684.428 228.027 686.65 227.74 689.23C226.593 702.13 223.727 713.382 219.14 722.985C214.553 732.588 209.107 740.615 202.8 747.065C196.493 753.515 190.043 758.532 183.45 762.115C182.447 762.688 181.3 762.975 180.01 762.975C176.14 762.975 173.488 761.112 172.055 757.385C171.625 756.238 171.41 755.092 171.41 753.945C171.41 750.075 173.13 747.137 176.57 745.13C186.46 738.967 194.057 731.37 199.36 722.34C204.807 713.167 208.175 701.987 209.465 688.8C209.752 686.363 210.827 684.285 212.69 682.565C214.553 680.845 216.703 679.913 219.14 679.77ZM171.84 708.795V746.85C171.84 750.72 170.478 754.017 167.755 756.74C165.032 759.607 161.663 761.04 157.65 761.04H126.26C122.39 761.04 119.022 759.678 116.155 756.955C113.432 754.232 112.07 750.863 112.07 746.85V708.795C112.07 705.068 113.432 701.772 116.155 698.905C119.022 696.038 122.39 694.605 126.26 694.605H157.65C161.52 694.605 164.817 696.038 167.54 698.905C170.407 701.628 171.84 704.925 171.84 708.795ZM130.345 742.55C130.345 743.41 130.775 743.84 131.635 743.84H152.49C153.35 743.84 153.78 743.41 153.78 742.55V713.31C153.78 712.45 153.35 712.02 152.49 712.02H131.635C130.775 712.02 130.345 712.45 130.345 713.31V742.55Z" fill="black"/>
<path d="M751.74 684.07C751.167 684.213 750.378 684.285 749.375 684.285C747.082 684.285 745.003 683.497 743.14 681.92C741.277 680.2 740.345 677.978 740.345 675.255C740.345 672.962 740.99 670.955 742.28 669.235C743.713 667.372 745.505 666.153 747.655 665.58C769.298 659.417 786.355 650.602 798.825 639.135C799.542 638.275 799.398 637.702 798.395 637.415C794.095 636.268 789.795 635.193 785.495 634.19C781.338 633.043 777.325 632.112 773.455 631.395C771.305 631.108 769.513 630.105 768.08 628.385C766.79 626.665 766.145 624.73 766.145 622.58C766.145 619.283 767.363 616.775 769.8 615.055C772.38 613.192 775.103 612.475 777.97 612.905C783.13 613.908 788.577 615.198 794.31 616.775C800.043 618.208 805.777 619.928 811.51 621.935C812.227 622.222 812.8 622.007 813.23 621.29C814.807 618.423 816.168 615.413 817.315 612.26C818.605 608.963 819.752 605.667 820.755 602.37C821.042 601.367 820.683 600.865 819.68 600.865H760.125C757.545 600.865 755.323 599.933 753.46 598.07C751.74 596.207 750.88 594.057 750.88 591.62C750.88 589.04 751.812 586.89 753.675 585.17C755.538 583.307 757.688 582.375 760.125 582.375H894.285C898.155 582.375 901.452 583.808 904.175 586.675C906.898 589.398 908.117 592.695 907.83 596.565C907.257 606.025 906.54 615.055 905.68 623.655C904.82 632.112 903.96 639.35 903.1 645.37C902.383 651.39 901.81 655.475 901.38 657.625C899.66 665.365 895.575 671.17 889.125 675.04C882.675 678.91 874.218 680.773 863.755 680.63C861.032 680.63 858.667 679.555 856.66 677.405C854.797 675.255 853.865 672.747 853.865 669.88C853.865 667.3 854.868 665.15 856.875 663.43C858.882 661.567 861.247 660.778 863.97 661.065C864.687 661.065 865.332 661.137 865.905 661.28C866.622 661.28 867.267 661.28 867.84 661.28C872.14 661.28 875.293 660.85 877.3 659.99C879.307 658.987 880.668 657.84 881.385 656.55C882.245 655.117 882.818 653.827 883.105 652.68C883.535 651.39 884.037 648.38 884.61 643.65C885.183 638.92 885.828 632.972 886.545 625.805C887.262 618.638 887.907 610.755 888.48 602.155C888.48 601.295 888.05 600.865 887.19 600.865H841.18C840.607 600.865 840.177 601.223 839.89 601.94C838.887 606.67 837.668 611.185 836.235 615.485C834.802 619.642 833.082 623.583 831.075 627.31C830.645 628.17 830.86 628.743 831.72 629.03C835.303 630.463 838.6 631.825 841.61 633.115C844.763 634.405 847.558 635.623 849.995 636.77C854.152 638.633 856.23 641.858 856.23 646.445C856.23 647.735 856.015 648.953 855.585 650.1C854.438 653.827 851.787 655.69 847.63 655.69C846.34 655.69 845.122 655.403 843.975 654.83C840.678 653.11 837.023 651.39 833.01 649.67C828.997 647.95 824.84 646.302 820.54 644.725H820.11C819.68 644.725 819.107 644.94 818.39 645.37C811.94 652.68 804.773 658.843 796.89 663.86C789.007 668.877 781.123 673.033 773.24 676.33C765.357 679.483 758.19 682.063 751.74 684.07ZM858.81 689.015C862.537 691.165 864.4 694.318 864.4 698.475C864.4 701.342 863.54 703.635 861.82 705.355C860.1 706.932 858.093 707.72 855.8 707.72C854.08 707.72 852.575 707.362 851.285 706.645C841.682 701.342 830.932 696.683 819.035 692.67C817.172 691.953 815.667 690.807 814.52 689.23C813.517 687.653 813.015 685.933 813.015 684.07C813.015 681.347 813.947 679.125 815.81 677.405C817.673 675.542 819.752 674.61 822.045 674.61C823.192 674.61 824.195 674.825 825.055 675.255C830.645 677.118 836.378 679.268 842.255 681.705C848.132 683.998 853.65 686.435 858.81 689.015ZM872.785 734.165C874.792 732.445 876.942 731.585 879.235 731.585C881.815 731.585 883.822 732.445 885.255 734.165C887.118 736.315 888.05 738.608 888.05 741.045C888.05 743.768 887.047 745.99 885.04 747.71C875.867 756.31 863.612 760.61 848.275 760.61H825.055C812.872 760.61 803.627 757.815 797.32 752.225C791.013 746.635 787.86 738.537 787.86 727.93V689.015C787.86 686.292 788.792 684.07 790.655 682.35C792.662 680.487 795.027 679.555 797.75 679.555C800.33 679.555 802.48 680.558 804.2 682.565C806.063 684.428 806.995 686.578 806.995 689.015V727.93C806.995 732.087 807.568 735.168 808.715 737.175C810.005 739.182 812.657 740.543 816.67 741.26C820.827 741.833 827.133 742.12 835.59 742.12C842.183 742.12 847.702 741.977 852.145 741.69C856.588 741.403 860.387 740.687 863.54 739.54C866.837 738.393 869.918 736.602 872.785 734.165ZM771.52 695.035C774.387 695.035 776.68 695.967 778.4 697.83C780.12 699.693 780.98 701.843 780.98 704.28C780.98 704.71 780.908 705.14 780.765 705.57C780.765 706 780.693 706.43 780.55 706.86C777.97 714.313 774.028 722.125 768.725 730.295C763.565 738.465 757.903 745.488 751.74 751.365C749.877 752.942 747.942 753.73 745.935 753.73C743.068 753.73 740.703 752.583 738.84 750.29C737.407 748.713 736.69 746.707 736.69 744.27C736.69 741.26 737.765 738.823 739.915 736.96C744.645 732.087 749.017 726.568 753.03 720.405C757.043 714.242 760.34 707.792 762.92 701.055C763.637 699.048 764.783 697.543 766.36 696.54C767.937 695.537 769.657 695.035 771.52 695.035ZM917.935 728.575C920.945 730.725 922.45 733.735 922.45 737.605C922.45 739.612 921.948 741.547 920.945 743.41C919.368 746.133 916.932 747.495 913.635 747.495C911.772 747.495 909.98 746.778 908.26 745.345C898.657 737.175 887.835 730.367 875.795 724.92C872.212 723.343 870.42 720.62 870.42 716.75C870.42 714.027 871.352 711.805 873.215 710.085C875.222 708.222 877.443 707.29 879.88 707.29C881.313 707.29 882.603 707.577 883.75 708.15C889.483 710.873 895.288 714.027 901.165 717.61C907.185 721.05 912.775 724.705 917.935 728.575Z" fill="black"/>
</g>
<defs>
<clipPath id="clip0_1_2">
<rect width="1024" height="1024" fill="white"/>
</clipPath>
</defs>
</svg>
